<svg xmlns="http://www.w3.org/2000/svg" xmlns:xlink="http://www.w3.org/1999/xlink" xmlns:lucid="lucid" width="1231" height="316"><g transform="translate(-238 -1577)" lucid:page-tab-id="0_0"><path d="M1079.92 1720h234.65v71h-234.65z" fill="#fff" fill-opacity="0"/><path d="M1097.67 1754.05l1.84 15.44c4.02-5.46 6.32-9.4 7.76-12.1 1.32-2.43 1.84-3.75 1.84-4.93 0-1.38-3.42-2.04-3.42-4.53 0-1.45 1.2-2.63 3.1-2.63 2.1 0 3.74 1.52 3.74 4.08 0 5.13-10.65 20.9-13.4 24.38-4.8 6.05-9.08 12.5-13.55 12.5-2.43 0-3.68-2.05-3.68-3.63 0-1.97 1.77-2.7 2.62-2.7 2.83 0 2.7 2.05 3.75 2.05 1.12 0 4.86-4.08 6.57-6.7l-2.5-20.64c-.33-2.96-.92-6.9-4.6-6.9-.72 0-1.77.2-2.36.26l-.14-1.05 9.86-1.64c1.5 2.18 1.97 3.88 2.57 8.75M1103.9 1739h-2.23l-8-6.77-7.97 6.77h-2.23l8.15-10.98h4.07M1172.65 1753.2h-38.7v-4.34h38.7v4.33m0 13.14h-38.7V1762h38.7v4.34M1210.37 1745.5h2.43c4.14 0 3.8-5.06 6.64-9.26 2.04-3.1 4.86-5.92 9.86-5.92 3.28 0 5.2 1.58 5.2 3.88 0 1.84-1.4 2.63-2.7 2.63-1.85 0-2.3-.72-2.3-1.64 0-.93.6-1.92.6-2.44 0-.33-.2-.53-1-.53-3.3 0-5.85 3.55-7.23 8.67l-1.25 4.6h5.26l-.8 2.5h-4.98l-5.2 20.1c-.46 1.8-.98 4.28-1.97 6.72-2.16 5.45-5.7 11.7-11.5 11.7-3.15 0-4.73-1.6-4.73-3.56 0-1.57.92-3.22 2.83-3.22 1.77 0 2.43 1.2 2.43 2.17 0 1.26-1.05 1.33-1.05 2.12 0 .4.4.6 1 .6 4.26 0 6.24-10.4 7.22-14.14l5.72-22.48h-5.06M1254.53 1784.8l-.8 1.06c-10.37-5.92-16.02-17.03-16.02-28.2 0-12.15 5.73-21.62 16.24-27.86l.6 1.05c-9.14 7.82-11.18 13.93-11.18 26.62 0 12.22 1.97 19.64 11.17 27.33M1276.48 1755.3l2.96-4.54c1.7-2.63 4-5.52 7.3-5.52 2.1 0 3.2.8 3.2 2.17 0 1.26-.84 2.77-2.55 2.77-1.46 0-1.78-.6-2.9-.6-1.97 0-2.7 1.06-3.62 2.5l-3.6 5.6c1.96 4.07 3.47 12.94 6.43 12.94 1.06 0 2.64-.9 4.02-3.74l.92.66c-.8 1-3.75 7.3-7.56 7.3-2.7 0-3.94-2.7-4.8-5.07l-2.62-7.42-4.14 6.44c-2.1 3.22-4 6.05-7.7 6.05-2.36 0-3.4-1.65-3.4-3.1 0-1.05.84-2.43 2.5-2.43 1.7 0 1.43 1.3 3.08 1.3.78 0 2.5-.65 4.6-3.87l4.27-6.64-2.17-6.05c-1.12-3.16-2.83-5.85-6.44-5.85-.86 0-1.84.13-2.5.4l-.2-1.2 8.68-2.16c2.9 1.58 4.14 4.27 4.93 6.44M1294.55 1730.85l.8-1.05c10.05 6.04 16.03 17.02 16.03 28.2 0 12.15-5.8 21.48-16.23 27.86l-.6-1.06c9.34-7.68 11.18-13.86 11.18-26.6 0-12.3-1.65-19.86-11.18-27.35"/><path d="M1339.02 1661.13l-48.4 55.95M1339 1661.16l1-1.16" stroke="#3a414a" stroke-width="3" fill="none"/><path d="M1285.28 1723.25l2.67-14.76 11.55 9.98z" stroke="#3a414a" stroke-width="3" fill="#3a414a"/><path d="M1040.83 1661.25l32.97 49.9M1040.85 1661.28l-.85-1.28" stroke="#3a414a" stroke-width="3" fill="none"/><path d="M1078.3 1717.96l-13.5-6.57 12.75-8.42z" stroke="#3a414a" stroke-width="3" fill="#3a414a"/><path d="M1318.5 1840H1215a6 6 0 0 1-6-6v-31.9M1318.46 1840h1.54" stroke="#3a414a" stroke-width="3" fill="none"/><path d="M1209 1793.95l7.63 12.9h-15.27z" stroke="#3a414a" stroke-width="3" fill="#3a414a"/><path d="M1314.57 1622.33a6 6 0 0 1 6-6h88a6 6 0 0 1 6 6v35.34a6 6 0 0 1-6 6h-88a6 6 0 0 1-6-6z" stroke="#000" stroke-opacity="0" fill="#fff" fill-opacity="0"/><use xlink:href="#a" transform="matrix(1,0,0,1,1319.5717616985407,1621.3333333333333) translate(-17.092592592592595 25.22222222222222)"/><path d="M980 1622.33a6 6 0 0 1 6-6h88a6 6 0 0 1 6 6v35.34a6 6 0 0 1-6 6h-88a6 6 0 0 1-6-6z" stroke="#000" stroke-opacity="0" fill="#fff" fill-opacity="0"/><use xlink:href="#b" transform="matrix(1,0,0,1,985,1621.3333333333333) translate(-24.006172839506178 25.22222222222222)"/><path d="M1320.3 1826a6 6 0 0 1 6-6h88a6 6 0 0 1 6 6v35.33a6 6 0 0 1-6 6h-88a6 6 0 0 1-6-6z" stroke="#000" stroke-opacity="0" fill="#fff" fill-opacity="0"/><use xlink:href="#c" transform="matrix(1,0,0,1,1325.2857394682499,1825) translate(2.7407407407407334 27.263888888888893)"/><path d="M453.42 1674.67a11 11 0 0 1 11-11h198a11 11 0 0 1 11 11v118a11 11 0 0 1-11 11h-198a11 11 0 0 1-11-11z" stroke="#3a414a" fill="url(#d)"/><path d="M439.7 1733.67H335.42" stroke="#3a414a" stroke-width="4" fill="none"/><path d="M449 1733.67l-12.92 7.63v-15.27z" stroke="#3a414a" stroke-width="4" fill="#3a414a"/><path d="M335.48 1733.67h-2.06M675.92 1733.67H780.2" stroke="#3a414a" stroke-width="4" fill="none"/><path d="M675.98 1735.67h-2.06v-4h2.06z" stroke="#3a414a" stroke-width=".05" fill="#3a414a"/><path d="M789.5 1733.67l-12.92 7.63v-15.27z" stroke="#3a414a" stroke-width="4" fill="#3a414a"/><path d="M535.73 1696.83h40.45v66.84h-40.45z" fill="#fff" fill-opacity="0"/><path d="M552.03 1718.17h2.43c4.14 0 3.8-5.06 6.63-9.27 2.03-3.08 4.86-5.9 9.85-5.9 3.3 0 5.2 1.57 5.2 3.87 0 1.84-1.4 2.63-2.7 2.63-1.84 0-2.3-.73-2.3-1.65 0-.92.6-1.9.6-2.43 0-.33-.2-.52-1-.52-3.28 0-5.84 3.54-7.22 8.67l-1.25 4.6h5.25l-.78 2.5h-5l-5.2 20.1c-.45 1.78-.97 4.28-1.96 6.7-2.18 5.46-5.73 11.7-11.5 11.7-3.17 0-4.74-1.57-4.74-3.54 0-1.58.92-3.22 2.82-3.22 1.78 0 2.43 1.2 2.43 2.18 0 1.25-1.04 1.3-1.04 2.1 0 .4.4.6 1 .6 4.26 0 6.23-10.4 7.22-14.14l5.72-22.47h-5.07"/><path d="M810.67 1698.17h32.63v71h-32.63z" fill="#fff" fill-opacity="0"/><path d="M828.4 1732.2l1.86 15.46c4-5.46 6.3-9.4 7.75-12.1 1.32-2.43 1.85-3.74 1.85-4.92 0-1.38-3.42-2.04-3.42-4.54 0-1.44 1.2-2.63 3.1-2.63 2.1 0 3.74 1.5 3.74 4.08 0 5.12-10.65 20.9-13.4 24.38-4.8 6.04-9.08 12.5-13.55 12.5-2.43 0-3.68-2.05-3.68-3.63 0-1.97 1.78-2.7 2.63-2.7 2.83 0 2.7 2.04 3.75 2.04 1.1 0 4.86-4.07 6.57-6.7l-2.5-20.63c-.34-2.95-.93-6.9-4.6-6.9-.73 0-1.78.2-2.37.27l-.14-1.05 9.85-1.65c1.5 2.17 1.97 3.88 2.56 8.74M834.66 1717.16h-2.24l-8-6.76-7.97 6.76h-2.23l8.15-10.97h4.07"/><path d="M280 1712.73h36.18v41.87H280z" fill="#fff" fill-opacity="0"/><path d="M300.04 1727.22l2.96-4.54c1.7-2.62 4-5.52 7.3-5.52 2.1 0 3.22.8 3.22 2.17 0 1.25-.86 2.76-2.57 2.76-1.44 0-1.77-.6-2.9-.6-1.96 0-2.68 1.05-3.6 2.5l-3.62 5.6c1.97 4.06 3.5 12.93 6.44 12.93 1.05 0 2.63-.92 4-3.74l.93.64c-.8 1-3.74 7.3-7.56 7.3-2.7 0-3.94-2.7-4.8-5.06l-2.62-7.43-4.14 6.44c-2.1 3.2-4 6.04-7.7 6.04-2.36 0-3.4-1.64-3.4-3.1 0-1.04.85-2.42 2.5-2.42 1.7 0 1.44 1.3 3.08 1.3.8 0 2.5-.64 4.6-3.87l4.27-6.63-2.17-6.05c-1.12-3.15-2.82-5.85-6.44-5.85-.85 0-1.84.13-2.5.4l-.2-1.2 8.68-2.15c2.9 1.57 4.14 4.27 4.93 6.43"/><defs><path fill="#323232" d="M30-248c87 1 191-15 191 75 0 78-77 80-158 76V0H30v-248zm33 125c57 0 124 11 124-50 0-59-68-47-124-48v98" id="e"/><path fill="#323232" d="M114-163C36-179 61-72 57 0H25l-1-190h30c1 12-1 29 2 39 6-27 23-49 58-41v29" id="f"/><path fill="#323232" d="M100-194c63 0 86 42 84 106H49c0 40 14 67 53 68 26 1 43-12 49-29l28 8c-11 28-37 45-77 45C44 4 14-33 15-96c1-61 26-98 85-98zm52 81c6-60-76-77-97-28-3 7-6 17-6 28h103" id="g"/><path fill="#323232" d="M85-194c31 0 48 13 60 33l-1-100h32l1 261h-30c-2-10 0-23-3-31C134-8 116 4 85 4 32 4 16-35 15-94c0-66 23-100 70-100zm9 24c-40 0-46 34-46 75 0 40 6 74 45 74 42 0 51-32 51-76 0-42-9-74-50-73" id="h"/><path fill="#323232" d="M24-231v-30h32v30H24zM24 0v-190h32V0H24" id="i"/><path fill="#323232" d="M96-169c-40 0-48 33-48 73s9 75 48 75c24 0 41-14 43-38l32 2c-6 37-31 61-74 61-59 0-76-41-82-99-10-93 101-131 147-64 4 7 5 14 7 22l-32 3c-4-21-16-35-41-35" id="j"/><path fill="#323232" d="M59-47c-2 24 18 29 38 22v24C64 9 27 4 27-40v-127H5v-23h24l9-43h21v43h35v23H59v120" id="k"/><path fill="#323232" d="M100-194c62-1 85 37 85 99 1 63-27 99-86 99S16-35 15-95c0-66 28-99 85-99zM99-20c44 1 53-31 53-75 0-43-8-75-51-75s-53 32-53 75 10 74 51 75" id="l"/><g id="a"><use transform="matrix(0.08641975308641976,0,0,0.08641975308641976,0,0)" xlink:href="#e"/><use transform="matrix(0.08641975308641976,0,0,0.08641975308641976,20.740740740740744,0)" xlink:href="#f"/><use transform="matrix(0.08641975308641976,0,0,0.08641975308641976,31.024691358024693,0)" xlink:href="#g"/><use transform="matrix(0.08641975308641976,0,0,0.08641975308641976,48.308641975308646,0)" xlink:href="#h"/><use transform="matrix(0.08641975308641976,0,0,0.08641975308641976,65.5925925925926,0)" xlink:href="#i"/><use transform="matrix(0.08641975308641976,0,0,0.08641975308641976,72.41975308641976,0)" xlink:href="#j"/><use transform="matrix(0.08641975308641976,0,0,0.08641975308641976,87.97530864197532,0)" xlink:href="#k"/><use transform="matrix(0.08641975308641976,0,0,0.08641975308641976,96.61728395061729,0)" xlink:href="#l"/><use transform="matrix(0.08641975308641976,0,0,0.08641975308641976,113.90123456790124,0)" xlink:href="#f"/></g><path fill="#323232" d="M117-194c89-4 53 116 60 194h-32v-121c0-31-8-49-39-48C34-167 62-67 57 0H25l-1-190h30c1 10-1 24 2 32 11-22 29-35 61-36" id="m"/><g id="b"><use transform="matrix(0.08641975308641976,0,0,0.08641975308641976,0,0)" xlink:href="#e"/><use transform="matrix(0.08641975308641976,0,0,0.08641975308641976,20.740740740740744,0)" xlink:href="#f"/><use transform="matrix(0.08641975308641976,0,0,0.08641975308641976,31.024691358024693,0)" xlink:href="#g"/><use transform="matrix(0.08641975308641976,0,0,0.08641975308641976,48.308641975308646,0)" xlink:href="#h"/><use transform="matrix(0.08641975308641976,0,0,0.08641975308641976,65.5925925925926,0)" xlink:href="#i"/><use transform="matrix(0.08641975308641976,0,0,0.08641975308641976,72.41975308641976,0)" xlink:href="#j"/><use transform="matrix(0.08641975308641976,0,0,0.08641975308641976,87.97530864197532,0)" xlink:href="#k"/><use transform="matrix(0.08641975308641976,0,0,0.08641975308641976,96.61728395061729,0)" xlink:href="#i"/><use transform="matrix(0.08641975308641976,0,0,0.08641975308641976,103.44444444444446,0)" xlink:href="#l"/><use transform="matrix(0.08641975308641976,0,0,0.08641975308641976,120.7283950617284,0)" xlink:href="#m"/></g><path fill="#323232" d="M240 0l2-218c-23 76-54 145-80 218h-23L58-218 59 0H30v-248h44l77 211c21-75 51-140 76-211h43V0h-30" id="n"/><path fill="#323232" d="M24 0v-261h32V0H24" id="o"/><g id="c"><use transform="matrix(0.08641975308641976,0,0,0.08641975308641976,0,0)" xlink:href="#n"/><use transform="matrix(0.08641975308641976,0,0,0.08641975308641976,25.83950617283951,0)" xlink:href="#l"/><use transform="matrix(0.08641975308641976,0,0,0.08641975308641976,43.12345679012346,0)" xlink:href="#h"/><use transform="matrix(0.08641975308641976,0,0,0.08641975308641976,60.407407407407426,0)" xlink:href="#g"/><use transform="matrix(0.08641975308641976,0,0,0.08641975308641976,77.69135802469137,0)" xlink:href="#o"/></g><linearGradient gradientUnits="userSpaceOnUse" id="d" x1="453.42" y1="1663.67" x2="453.42" y2="1803.67"><stop offset="0%" stop-color="#fff"/><stop offset="70.78%" stop-color="#cfe4ff"/><stop offset="100%" stop-color="#8abdff"/></linearGradient></defs></g></svg>