<svg xmlns="http://www.w3.org/2000/svg" xmlns:lucid="lucid" width="1406" height="616"><g transform="translate(1658 -3465)" lucid:page-tab-id="0_0"><path d="M-1600 3646a6 6 0 0 1 6-6h1288a6 6 0 0 1 6 6v48a6 6 0 0 1-6 6h-1288a6 6 0 0 1-6-6z" stroke="#3a414a" fill="url(#a)"/><path d="M-1600 3646a6 6 0 0 1 6-6h248a6 6 0 0 1 6 6v48.84a6 6 0 0 1-6 6h-248a6 6 0 0 1-6-6z" stroke="#3a414a" fill="url(#b)"/><path d="M-1600 3526a6 6 0 0 1 6-6h1288a6 6 0 0 1 6 6v48a6 6 0 0 1-6 6h-1288a6 6 0 0 1-6-6z" stroke="#3a414a" fill="url(#c)"/><path d="M-1600 3726a6 6 0 0 1 6-6h1288a6 6 0 0 1 6 6v48.84a6 6 0 0 1-6 6h-1288a6 6 0 0 1-6-6z" stroke="#3a414a" fill="url(#d)"/><path d="M-1600 3806a6 6 0 0 1 6-6h1288a6 6 0 0 1 6 6v48.84a6 6 0 0 1-6 6h-1288a6 6 0 0 1-6-6z" stroke="#3a414a" fill="url(#e)"/><path d="M-1600 3886a6 6 0 0 1 6-6h1288a6 6 0 0 1 6 6v48.84a6 6 0 0 1-6 6h-1288a6 6 0 0 1-6-6z" stroke="#3a414a" fill="url(#f)"/><path d="M-1600 3966a6 6 0 0 1 6-6h1288a6 6 0 0 1 6 6v48.84a6 6 0 0 1-6 6h-1288a6 6 0 0 1-6-6z" stroke="#3a414a" fill="url(#g)"/><path d="M-1340 3726a6 6 0 0 1 6-6h248a6 6 0 0 1 6 6v48.84a6 6 0 0 1-6 6h-248a6 6 0 0 1-6-6z" stroke="#3a414a" fill="url(#h)"/><path d="M-1080 3806a6 6 0 0 1 6-6h248a6 6 0 0 1 6 6v48.84a6 6 0 0 1-6 6h-248a6 6 0 0 1-6-6z" stroke="#3a414a" fill="url(#i)"/><path d="M-820 3886a6 6 0 0 1 6-6h248a6 6 0 0 1 6 6v48.84a6 6 0 0 1-6 6h-248a6 6 0 0 1-6-6z" stroke="#3a414a" fill="url(#j)"/><path d="M-560 3966a6 6 0 0 1 6-6h248a6 6 0 0 1 6 6v48.84a6 6 0 0 1-6 6h-248a6 6 0 0 1-6-6z" stroke="#3a414a" fill="url(#k)"/><path d="M-950 3582.5v43.77" stroke="#3a414a" stroke-width="4" fill="none"/><path d="M-948 3582.55h-4v-2.05h4z" stroke="#3a414a" stroke-width=".05" fill="#3a414a"/><path d="M-950 3635.57l-7.64-12.9h15.28z" stroke="#3a414a" stroke-width="4" fill="#3a414a"/><defs><linearGradient gradientUnits="userSpaceOnUse" id="a" x1="-1600" y1="3640" x2="-1600" y2="3700"><stop offset="0%" stop-color="#fff"/><stop offset="56.66%" stop-color="#c3f7c8"/><stop offset="100%" stop-color="#85ef90"/></linearGradient><linearGradient gradientUnits="userSpaceOnUse" id="b" x1="-1600" y1="3640" x2="-1600" y2="3700.84"><stop offset="0%" stop-color="#fff"/><stop offset="61.79%" stop-color="#ffdda6"/><stop offset="100%" stop-color="#ffc362"/></linearGradient><linearGradient gradientUnits="userSpaceOnUse" id="c" x1="-300" y1="3520" x2="-300" y2="3580"><stop offset="0%" stop-color="#fff"/><stop offset="53.8%" stop-color="#fcfcca"/><stop offset="100%" stop-color="#f8f88a"/></linearGradient><linearGradient gradientUnits="userSpaceOnUse" id="d" x1="-1600" y1="3720" x2="-1600" y2="3780.84"><stop offset="0%" stop-color="#fff"/><stop offset="56.66%" stop-color="#c3f7c8"/><stop offset="100%" stop-color="#85ef90"/></linearGradient><linearGradient gradientUnits="userSpaceOnUse" id="e" x1="-1600" y1="3800" x2="-1600" y2="3860.84"><stop offset="0%" stop-color="#fff"/><stop offset="56.66%" stop-color="#c3f7c8"/><stop offset="100%" stop-color="#85ef90"/></linearGradient><linearGradient gradientUnits="userSpaceOnUse" id="f" x1="-1600" y1="3880" x2="-1600" y2="3940.84"><stop offset="0%" stop-color="#fff"/><stop offset="56.66%" stop-color="#c3f7c8"/><stop offset="100%" stop-color="#85ef90"/></linearGradient><linearGradient gradientUnits="userSpaceOnUse" id="g" x1="-1600" y1="3960" x2="-1600" y2="4020.84"><stop offset="0%" stop-color="#fff"/><stop offset="56.66%" stop-color="#c3f7c8"/><stop offset="100%" stop-color="#85ef90"/></linearGradient><linearGradient gradientUnits="userSpaceOnUse" id="h" x1="-1340" y1="3720" x2="-1340" y2="3780.84"><stop offset="0%" stop-color="#fff"/><stop offset="61.79%" stop-color="#ffdda6"/><stop offset="100%" stop-color="#ffc362"/></linearGradient><linearGradient gradientUnits="userSpaceOnUse" id="i" x1="-1080" y1="3800" x2="-1080" y2="3860.84"><stop offset="0%" stop-color="#fff"/><stop offset="61.79%" stop-color="#ffdda6"/><stop offset="100%" stop-color="#ffc362"/></linearGradient><linearGradient gradientUnits="userSpaceOnUse" id="j" x1="-820" y1="3880" x2="-820" y2="3940.84"><stop offset="0%" stop-color="#fff"/><stop offset="61.79%" stop-color="#ffdda6"/><stop offset="100%" stop-color="#ffc362"/></linearGradient><linearGradient gradientUnits="userSpaceOnUse" id="k" x1="-560" y1="3960" x2="-560" y2="4020.84"><stop offset="0%" stop-color="#fff"/><stop offset="61.79%" stop-color="#ffdda6"/><stop offset="100%" stop-color="#ffc362"/></linearGradient></defs></g></svg>