<svg xmlns="http://www.w3.org/2000/svg" xmlns:lucid="lucid" width="978" height="349"><g transform="translate(-1858 -3255)" lucid:page-tab-id="0_0"><path d="M2100 3361.6a11 11 0 0 1 11-11h158a11 11 0 0 1 11 11v110.9a11 11 0 0 1-11 11h-158a11 11 0 0 1-11-11z" stroke="#3a414a" fill="url(#a)"/><path d="M2086.27 3417.05h-26.5a.03.03 0 0 0-.02.03.03.03 0 0 1-.03.04H2022" stroke="#3a414a" stroke-width="4" fill="none"/><path d="M2095.57 3417.05l-12.9 7.64v-15.28z" stroke="#3a414a" stroke-width="4" fill="#3a414a"/><path d="M2022.05 3417.12H2020M2622.5 3416.98h64.27" stroke="#3a414a" stroke-width="4" fill="none"/><path d="M2622.55 3418.98h-2.05v-4h2.05z" stroke="#3a414a" stroke-width=".05" fill="#3a414a"/><path d="M2696.07 3416.98l-12.9 7.64v-15.27z" stroke="#3a414a" stroke-width="4" fill="#3a414a"/><path d="M2164.52 3392.86h50.96v46.03h-50.96z" fill="#fff" fill-opacity="0"/><path d="M2199.4 3400.87l-5.24 19c-.4 1.5-.8 3-.8 4.6 0 2.55 1.26 4 3.88 4 7.1 0 10.78-7.56 12.82-13.34.53-1.58 1-3.22 1-4.87 0-4.86-3.9-4.33-4.02-7.16-.13-2.36 1.97-2.76 3.55-2.76 2.75 0 3.08 3.35 3.08 5.46 0 9.6-6.9 25.23-18.14 25.23-4.54 0-7.3-1.84-7.3-6.57 0-2.76.8-5.6 1.5-8.22-2.6 5.85-8 14.8-15.36 14.8-3.68 0-5.13-2.24-5.13-5.73 0-2.15.72-4.2 1.25-6.23l3.1-11.63c.18-.6.32-1.25.32-1.9 0-1.58-2.5-1.45-3.55-1.45v-1c3.48-.6 6.9-1.5 10.18-2.9l.27.2-5.33 20.18c-.2.86-.73 2.96-.73 4.8 0 1.7.4 3.1 1.84 3.1 3.82-.08 8.5-7.5 10.07-9.93 3.48-5.33 5.2-10.45 7.22-17.68h5.5"/><path d="M2708 3375.32h53.68v75.16H2708z" fill="#fff" fill-opacity="0"/><path d="M2725.74 3409.37l1.84 15.44c4-5.44 6.3-9.38 7.76-12.08 1.3-2.43 1.84-3.74 1.84-4.93 0-1.4-3.42-2.04-3.42-4.54 0-1.45 1.18-2.63 3.1-2.63 2.1 0 3.74 1.5 3.74 4.07 0 5.13-10.65 20.9-13.4 24.4-4.8 6.03-9.08 12.47-13.55 12.47-2.43 0-3.68-2.04-3.68-3.6 0-1.98 1.78-2.7 2.63-2.7 2.83 0 2.7 2.03 3.75 2.03 1.1 0 4.86-4.07 6.57-6.7l-2.5-20.64c-.33-2.95-.92-6.9-4.6-6.9-.72 0-1.77.2-2.37.26l-.13-1.05 9.86-1.64c1.5 2.17 1.97 3.88 2.56 8.74M2732 3394.32h-2.25l-8-6.77-7.97 6.77h-2.23l8.15-10.97h4.07M2752.56 3417.7c0 1.2-1.03 2.14-2.23 2.14-1.35 0-2.23-.93-2.23-2.14 0-1.16.88-2.32 2.23-2.32 1.2 0 2.23 1.16 2.23 2.32m-1.4 5.8l-4.27 16.92c-.06.28-.06.46-.06.65 0 .32.28.46.6.46 1.03 0 1.3-.56 2.98-2.37l.6.47c-1.62 2.1-3.95 4.88-6.22 4.88-1.3 0-1.86-.88-1.86-2.13 0-.56 0-1.44 3.67-15.7.06-.1.1-.42.1-.56 0-.78-.37-1-1.44-1-.42 0-.97.08-1.3.17l-.14-.74"/><path d="M1960 3389.8h57.23v50.2H1960z" fill="#fff" fill-opacity="0"/><path d="M1980.04 3404.3l2.96-4.54c1.7-2.63 4-5.52 7.3-5.52 2.1 0 3.22.8 3.22 2.17 0 1.26-.86 2.77-2.57 2.77-1.44 0-1.77-.6-2.9-.6-1.96 0-2.68 1.06-3.6 2.5l-3.62 5.6c1.97 4.07 3.5 12.94 6.44 12.94 1.05 0 2.63-.9 4-3.74l.93.66c-.8 1-3.74 7.3-7.56 7.3-2.7 0-3.94-2.7-4.8-5.07l-2.62-7.42-4.14 6.44c-2.1 3.22-4 6.04-7.7 6.04-2.36 0-3.4-1.63-3.4-3.08 0-1.05.85-2.43 2.5-2.43 1.7 0 1.43 1.3 3.08 1.3.8 0 2.5-.65 4.6-3.87l4.27-6.64-2.17-6.05c-1.12-3.16-2.83-5.85-6.44-5.85-.85 0-1.84.13-2.5.4l-.2-1.2 8.68-2.16c2.9 1.58 4.14 4.27 4.93 6.44M2008.1 3406.82c0 1.2-1.03 2.14-2.24 2.14-1.35 0-2.23-.93-2.23-2.14 0-1.16.88-2.32 2.23-2.32 1.2 0 2.23 1.16 2.23 2.32m-1.4 5.8l-4.28 16.92c-.05.28-.05.47-.05.65 0 .32.28.46.6.46 1.03 0 1.3-.56 2.98-2.37l.6.45c-1.62 2.1-3.94 4.88-6.22 4.88-1.3 0-1.86-.88-1.86-2.14 0-.57 0-1.45 3.67-15.7.05-.1.1-.43.1-.57 0-.8-.38-1.02-1.45-1.02-.42 0-.98.1-1.3.2l-.15-.75"/><path d="M2440 3361.47a11 11 0 0 1 11-11h158a11 11 0 0 1 11 11v111.02a11 11 0 0 1-11 11h-158a11 11 0 0 1-11-11z" stroke="#3a414a" fill="url(#b)"/><path d="M2426.27 3419.98h-66.24a.03.03 0 0 0-.03.03.03.03 0 0 1-.03.05h-77.47" stroke="#3a414a" stroke-width="4" fill="none"/><path d="M2435.57 3419.98l-12.9 7.64v-15.27z" stroke="#3a414a" stroke-width="4" fill="#3a414a"/><path d="M2282.55 3422.05h-2.05v-4h2.05z" stroke="#3a414a" stroke-width=".05" fill="#3a414a"/><path d="M2500 3395.07h56.08v43.82H2500z" fill="#fff" fill-opacity="0"/><path d="M2523.8 3418.72l-21.66-9.35v-.38l21.65-9.32v2.5l-16.56 7 16.55 7.12v2.42m0 6.47l-21.66 9.3v-2.4l16.56-7.1-16.55-7.05v-2.5l21.64 9.36v.4M2555.13 3414.04c0 6.6-2.4 13.18-8.66 13.18-6.55 0-8.66-7.13-8.66-13.4 0-6.8 2.66-13.03 8.83-13.03 5 0 8.5 5.4 8.5 13.24m-3.68.2c0-7.97-1.68-12.46-5.05-12.46-3.18 0-4.9 4.52-4.9 12.3 0 7.78 1.68 12.14 4.97 12.14 3.26 0 4.98-4.4 4.98-12"/><path d="M2310 3360.84h100v54.36h-100z" fill="#fff" fill-opacity="0"/><path d="M2323.74 3390.74l2.02-3.1c1.17-1.8 2.75-3.8 5-3.8 1.44 0 2.2.55 2.2 1.5 0 .85-.58 1.9-1.75 1.9-.98 0-1.2-.42-1.97-.42-1.35 0-1.85.72-2.48 1.7l-2.47 3.84c1.35 2.8 2.38 8.87 4.4 8.87.73 0 1.8-.63 2.76-2.56l.63.45c-.54.67-2.57 5-5.18 5-1.86 0-2.7-1.85-3.3-3.47l-1.8-5.1-2.84 4.42c-1.44 2.2-2.74 4.15-5.27 4.15-1.63 0-2.35-1.13-2.35-2.12 0-.72.6-1.67 1.7-1.67 1.18 0 1 .9 2.13.9.54 0 1.7-.45 3.15-2.65l2.93-4.55-1.5-4.15c-.75-2.16-1.92-4-4.4-4-.6 0-1.26.1-1.7.27l-.15-.82 5.96-1.48c1.98 1.08 2.84 2.93 3.38 4.4M2342.96 3392.47c0 .83-.7 1.47-1.53 1.47-.93 0-1.53-.64-1.53-1.47 0-.8.6-1.6 1.53-1.6.83 0 1.53.8 1.53 1.6m-.96 3.98l-2.93 11.6c-.03.18-.03.3-.03.44 0 .2.2.3.4.3.7 0 .9-.38 2.05-1.62l.4.32c-1.1 1.43-2.7 3.34-4.26 3.34-.9 0-1.28-.6-1.28-1.46 0-.38 0-1 2.52-10.76.03-.07.06-.3.06-.4 0-.53-.25-.7-.98-.7-.3 0-.67.08-.9.14l-.1-.5M2370.53 3366.58l-1.47 5.7h-.5c.06-.54.16-1.4.16-2.26 0-2.1-1.85-2.26-3.16-2.26h-3.12l-4.23 17.13c-.06.28-.15.5-.15.8 0 .66.5 1.17 2.42 1.17h.67l-.13.5h-10.47l.13-.5h.57c2.5 0 3.13-.9 3.38-1.98l4.24-17.14h-2.9c-2.64 0-4.87 1.94-5.44 4.52h-.5l1.46-5.7h19.07M2398.95 3383.44l-3.6 13.02c-.28 1.03-.55 2.07-.55 3.15 0 1.77.86 2.76 2.66 2.76 4.87 0 7.4-5.18 8.78-9.14.36-1.08.68-2.2.68-3.34 0-3.33-2.66-2.97-2.75-4.9-.1-1.63 1.35-1.9 2.43-1.9 1.9 0 2.12 2.3 2.12 3.74 0 6.58-4.73 17.3-12.43 17.3-3.12 0-5-1.26-5-4.5 0-1.9.53-3.84 1.03-5.64-1.8 4-5.5 10.14-10.54 10.14-2.53 0-3.52-1.54-3.52-3.92 0-1.5.5-2.88.85-4.28l2.12-7.97c.13-.4.22-.86.22-1.3 0-1.1-1.7-1-2.43-1v-.68c2.4-.4 4.73-1.03 6.98-1.98l.18.13-3.65 13.82c-.13.6-.5 2.03-.5 3.3 0 1.16.28 2.1 1.27 2.1 2.6-.04 5.8-5.13 6.9-6.8 2.38-3.64 3.55-7.15 4.95-12.1h3.78"/><defs><linearGradient gradientUnits="userSpaceOnUse" id="a" x1="2100" y1="3350.61" x2="2100" y2="3483.49"><stop offset="0%" stop-color="#fff"/><stop offset="70.78%" stop-color="#cfe4ff"/><stop offset="100%" stop-color="#8abdff"/></linearGradient><linearGradient gradientUnits="userSpaceOnUse" id="b" x1="2440" y1="3350.47" x2="2440" y2="3483.49"><stop offset="0%" stop-color="#fff"/><stop offset="70.78%" stop-color="#cfe4ff"/><stop offset="100%" stop-color="#8abdff"/></linearGradient></defs></g></svg>