<svg xmlns="http://www.w3.org/2000/svg" xmlns:lucid="lucid" width="1388" height="676"><g transform="translate(1656 -2754)" lucid:page-tab-id="0_0"><path d="M-1600 2958.15a6 6 0 0 1 6-6h1268a6 6 0 0 1 6 6V3007a6 6 0 0 1-6 6h-1268a6 6 0 0 1-6-6z" stroke="#3a414a" fill="url(#a)"/><path d="M-1600 2958.15a6 6 0 0 1 6-6h48a6 6 0 0 1 6 6V3007a6 6 0 0 1-6 6h-48a6 6 0 0 1-6-6z" stroke="#3a414a" fill="url(#b)"/><path d="M-1600 2826a6 6 0 0 1 6-6h1268a6 6 0 0 1 6 6v48.84a6 6 0 0 1-6 6h-1268a6 6 0 0 1-6-6z" stroke="#3a414a" fill="url(#c)"/><path d="M-960 2883.34v50.78" stroke="#3a414a" stroke-width="4" fill="none"/><path d="M-958 2883.4h-4v-2.06h4z" stroke="#3a414a" stroke-width=".05" fill="#3a414a"/><path d="M-960 2943.42l-7.64-12.9h15.28z" stroke="#3a414a" stroke-width="4" fill="#3a414a"/><path d="M-1600 3046a6 6 0 0 1 6-6h1268a6 6 0 0 1 6 6v48.84a6 6 0 0 1-6 6h-1268a6 6 0 0 1-6-6z" stroke="#3a414a" fill="url(#d)"/><path d="M-1540 3046a6 6 0 0 1 6-6h48a6 6 0 0 1 6 6v48.84a6 6 0 0 1-6 6h-48a6 6 0 0 1-6-6z" stroke="#3a414a" fill="url(#e)"/><path d="M-1600 3133.85a6 6 0 0 1 6-6h1268a6 6 0 0 1 6 6v48.84a6 6 0 0 1-6 6h-1268a6 6 0 0 1-6-6z" stroke="#3a414a" fill="url(#f)"/><path d="M-1480 3133.85a6 6 0 0 1 6-6h48a6 6 0 0 1 6 6v48.84a6 6 0 0 1-6 6h-48a6 6 0 0 1-6-6z" stroke="#3a414a" fill="url(#g)"/><path d="M-948.24 3222.36V3280H-980v-57.64z" fill="#fff" fill-opacity="0"/><path d="M-960.2 3273.25c-2.1 0-3.98-1.56-3.98-3.92s1.56-3.98 3.98-3.98c2.37 0 3.92 2 3.92 3.98 0 2-1.6 3.92-3.92 3.92m0-18.17c-2.1 0-3.98-1.55-3.98-3.92 0-2.36 1.56-3.98 3.98-3.98 2.37 0 3.92 2 3.92 3.98 0 2-1.6 3.92-3.92 3.92m0-18.1c-2.1 0-3.98-1.56-3.98-3.92 0-2.37 1.56-3.98 3.98-3.98 2.37 0 3.92 2 3.92 3.98 0 2-1.6 3.92-3.92 3.92"/><path d="M-1600 3306a6 6 0 0 1 6-6h1268a6 6 0 0 1 6 6v48.84a6 6 0 0 1-6 6h-1268a6 6 0 0 1-6-6z" stroke="#3a414a" fill="url(#h)"/><path d="M-380 3306a6 6 0 0 1 6-6h48a6 6 0 0 1 6 6v48.84a6 6 0 0 1-6 6h-48a6 6 0 0 1-6-6z" stroke="#3a414a" fill="url(#i)"/><defs><linearGradient gradientUnits="userSpaceOnUse" id="a" x1="-1600" y1="2952.15" x2="-1600" y2="3013"><stop offset="0%" stop-color="#fff"/><stop offset="56.66%" stop-color="#c3f7c8"/><stop offset="100%" stop-color="#85ef90"/></linearGradient><linearGradient gradientUnits="userSpaceOnUse" id="b" x1="-1600" y1="2952.15" x2="-1600" y2="3013"><stop offset="0%" stop-color="#fff"/><stop offset="61.79%" stop-color="#ffdda6"/><stop offset="100%" stop-color="#ffc362"/></linearGradient><linearGradient gradientUnits="userSpaceOnUse" id="c" x1="-320" y1="2820" x2="-320" y2="2880.84"><stop offset="0%" stop-color="#fff"/><stop offset="53.8%" stop-color="#fcfcca"/><stop offset="100%" stop-color="#f8f88a"/></linearGradient><linearGradient gradientUnits="userSpaceOnUse" id="d" x1="-1600" y1="3040" x2="-1600" y2="3100.84"><stop offset="0%" stop-color="#fff"/><stop offset="56.66%" stop-color="#c3f7c8"/><stop offset="100%" stop-color="#85ef90"/></linearGradient><linearGradient gradientUnits="userSpaceOnUse" id="e" x1="-1540" y1="3040" x2="-1540" y2="3100.84"><stop offset="0%" stop-color="#fff"/><stop offset="61.79%" stop-color="#ffdda6"/><stop offset="100%" stop-color="#ffc362"/></linearGradient><linearGradient gradientUnits="userSpaceOnUse" id="f" x1="-1600" y1="3127.85" x2="-1600" y2="3188.69"><stop offset="0%" stop-color="#fff"/><stop offset="56.66%" stop-color="#c3f7c8"/><stop offset="100%" stop-color="#85ef90"/></linearGradient><linearGradient gradientUnits="userSpaceOnUse" id="g" x1="-1480" y1="3127.85" x2="-1480" y2="3188.69"><stop offset="0%" stop-color="#fff"/><stop offset="61.79%" stop-color="#ffdda6"/><stop offset="100%" stop-color="#ffc362"/></linearGradient><linearGradient gradientUnits="userSpaceOnUse" id="h" x1="-1600" y1="3300" x2="-1600" y2="3360.84"><stop offset="0%" stop-color="#fff"/><stop offset="56.66%" stop-color="#c3f7c8"/><stop offset="100%" stop-color="#85ef90"/></linearGradient><linearGradient gradientUnits="userSpaceOnUse" id="i" x1="-380" y1="3300" x2="-380" y2="3360.84"><stop offset="0%" stop-color="#fff"/><stop offset="61.79%" stop-color="#ffdda6"/><stop offset="100%" stop-color="#ffc362"/></linearGradient></defs></g></svg>