<svg xmlns="http://www.w3.org/2000/svg" xmlns:xlink="http://www.w3.org/1999/xlink" xmlns:lucid="lucid" width="1531" height="819"><g transform="translate(-1149 -459)" lucid:page-tab-id="0_0"><path d="M1740 531a11 11 0 0 1 11-11h378a11 11 0 0 1 11 11v138a11 11 0 0 1-11 11h-378a11 11 0 0 1-11-11z" stroke="#3a414a" fill="url(#a)"/><use xlink:href="#b" transform="matrix(1,0,0,1,1752,532) translate(29.333333333333314 74.5)"/><use xlink:href="#c" transform="matrix(1,0,0,1,1752,532) translate(191.33333333333331 74.5)"/><path d="M1360 847.84a11 11 0 0 1 11-11h378a11 11 0 0 1 11 11v104.5a11 11 0 0 1-11 11h-378a11 11 0 0 1-11-11z" stroke="#3a414a" fill="url(#d)"/><use xlink:href="#e" transform="matrix(1,0,0,1,1372,848.8368158346361) translate(88.1111111111111 60.96875)"/><path d="M2080 847.84a11 11 0 0 1 11-11h378a11 11 0 0 1 11 11v104.5a11 11 0 0 1-11 11h-378a11 11 0 0 1-11-11z" stroke="#3a414a" fill="url(#f)"/><use xlink:href="#g" transform="matrix(1,0,0,1,2092,848.8368158346361) translate(65.94444444444443 60.96875)"/><path d="M1240 1095.86a11 11 0 0 1 11-11h278a11 11 0 0 1 11 11v104.5a11 11 0 0 1-11 11h-278a11 11 0 0 1-11-11z" stroke="#3a414a" fill="url(#h)"/><use xlink:href="#i" transform="matrix(1,0,0,1,1252,1096.8570118346356) translate(37.05555555555554 60.96875)"/><path d="M1580 1095.86a11 11 0 0 1 11-11h278a11 11 0 0 1 11 11v104.5a11 11 0 0 1-11 11h-278a11 11 0 0 1-11-11z" stroke="#3a414a" fill="url(#j)"/><use xlink:href="#k" transform="matrix(1,0,0,1,1592,1096.8570118346356) translate(20.5 60.96875)"/><path d="M1960 1099.1a11 11 0 0 1 11-11h278a11 11 0 0 1 11 11v98a11 11 0 0 1-11 11h-278a11 11 0 0 1-11-11z" stroke="#3a414a" fill="url(#l)"/><use xlink:href="#m" transform="matrix(1,0,0,1,1972,1100.1019380826817) translate(57 35)"/><use xlink:href="#n" transform="matrix(1,0,0,1,1972,1100.1019380826817) translate(63.66666666666667 83)"/><path d="M2300 1099.1a11 11 0 0 1 11-11h278a11 11 0 0 1 11 11v98a11 11 0 0 1-11 11h-278a11 11 0 0 1-11-11z" stroke="#3a414a" fill="url(#o)"/><use xlink:href="#p" transform="matrix(1,0,0,1,2312,1100.1019380826817) translate(71.44444444444444 35)"/><use xlink:href="#q" transform="matrix(1,0,0,1,2312,1100.1019380826817) translate(44.83333333333333 83)"/><path d="M1940 682.5v69.92a6 6 0 0 1-6 6h-368a6 6 0 0 0-6 6v49.18" stroke="#3a414a" stroke-width="4" fill="none"/><path d="M1942 682.55h-4v-2.05h4z" stroke="#3a414a" stroke-width=".05" fill="#3a414a"/><path d="M1560 829.87l-4.63-14.27h9.27z" stroke="#3a414a" stroke-width="4" fill="#3a414a"/><path d="M1940 682.5v69.92a6 6 0 0 0 6 6h328a6 6 0 0 1 6 6v58.7" stroke="#3a414a" stroke-width="4" fill="none"/><path d="M1942 682.55h-4v-2.05h4z" stroke="#3a414a" stroke-width=".05" fill="#3a414a"/><path d="M2280 832.4l-7.64-12.9h15.28z" stroke="#3a414a" stroke-width="4" fill="#3a414a"/><path d="M1560 965.83v52.26a6 6 0 0 1-6 6h-158a6 6 0 0 0-6 6v41.03" stroke="#3a414a" stroke-width="4" fill="none"/><path d="M1562 965.88h-4v-2.05h4z" stroke="#3a414a" stroke-width=".05" fill="#3a414a"/><path d="M1390 1080.43l-7.64-12.9h15.28z" stroke="#3a414a" stroke-width="4" fill="#3a414a"/><path d="M1560 965.83v52.26a6 6 0 0 0 6 6h158a6 6 0 0 1 6 6v41.03" stroke="#3a414a" stroke-width="4" fill="none"/><path d="M1562 965.88h-4v-2.05h4z" stroke="#3a414a" stroke-width=".05" fill="#3a414a"/><path d="M1730 1080.43l-7.64-12.9h15.28z" stroke="#3a414a" stroke-width="4" fill="#3a414a"/><path d="M2280 965.83v53.88a6 6 0 0 1-6 6h-158a6 6 0 0 0-6 6v42.67" stroke="#3a414a" stroke-width="4" fill="none"/><path d="M2282 965.88h-4v-2.05h4z" stroke="#3a414a" stroke-width=".05" fill="#3a414a"/><path d="M2110 1083.67l-7.64-12.9h15.28z" stroke="#3a414a" stroke-width="4" fill="#3a414a"/><path d="M2280 965.83v53.88a6 6 0 0 0 6 6h158a6 6 0 0 1 6 6v42.67" stroke="#3a414a" stroke-width="4" fill="none"/><path d="M2282 965.88h-4v-2.05h4z" stroke="#3a414a" stroke-width=".05" fill="#3a414a"/><path d="M2450 1083.67l-7.64-12.9h15.28z" stroke="#3a414a" stroke-width="4" fill="#3a414a"/><defs><linearGradient gradientUnits="userSpaceOnUse" id="a" x1="1740" y1="520" x2="1740" y2="680"><stop offset="0%" stop-color="#fff"/><stop offset="70.78%" stop-color="#cfe4ff"/><stop offset="100%" stop-color="#8abdff"/></linearGradient><path fill="#3a414a" d="M240 0l2-218c-23 76-54 145-80 218h-23L58-218 59 0H30v-248h44l77 211c21-75 51-140 76-211h43V0h-30" id="r"/><path fill="#3a414a" d="M141-36C126-15 110 5 73 4 37 3 15-17 15-53c-1-64 63-63 125-63 3-35-9-54-41-54-24 1-41 7-42 31l-33-3c5-37 33-52 76-52 45 0 72 20 72 64v82c-1 20 7 32 28 27v20c-31 9-61-2-59-35zM48-53c0 20 12 33 32 33 41-3 63-29 60-74-43 2-92-5-92 41" id="s"/><path fill="#3a414a" d="M96-169c-40 0-48 33-48 73s9 75 48 75c24 0 41-14 43-38l32 2c-6 37-31 61-74 61-59 0-76-41-82-99-10-93 101-131 147-64 4 7 5 14 7 22l-32 3c-4-21-16-35-41-35" id="t"/><path fill="#3a414a" d="M106-169C34-169 62-67 57 0H25v-261h32l-1 103c12-21 28-36 61-36 89 0 53 116 60 194h-32v-121c2-32-8-49-39-48" id="u"/><path fill="#3a414a" d="M24-231v-30h32v30H24zM24 0v-190h32V0H24" id="v"/><path fill="#3a414a" d="M117-194c89-4 53 116 60 194h-32v-121c0-31-8-49-39-48C34-167 62-67 57 0H25l-1-190h30c1 10-1 24 2 32 11-22 29-35 61-36" id="w"/><path fill="#3a414a" d="M100-194c63 0 86 42 84 106H49c0 40 14 67 53 68 26 1 43-12 49-29l28 8c-11 28-37 45-77 45C44 4 14-33 15-96c1-61 26-98 85-98zm52 81c6-60-76-77-97-28-3 7-6 17-6 28h103" id="x"/><g id="b"><use transform="matrix(0.1111111111111111,0,0,0.1111111111111111,0,0)" xlink:href="#r"/><use transform="matrix(0.1111111111111111,0,0,0.1111111111111111,33.22222222222222,0)" xlink:href="#s"/><use transform="matrix(0.1111111111111111,0,0,0.1111111111111111,55.44444444444444,0)" xlink:href="#t"/><use transform="matrix(0.1111111111111111,0,0,0.1111111111111111,75.44444444444444,0)" xlink:href="#u"/><use transform="matrix(0.1111111111111111,0,0,0.1111111111111111,97.66666666666666,0)" xlink:href="#v"/><use transform="matrix(0.1111111111111111,0,0,0.1111111111111111,106.44444444444443,0)" xlink:href="#w"/><use transform="matrix(0.1111111111111111,0,0,0.1111111111111111,128.66666666666666,0)" xlink:href="#x"/></g><path fill="#3a414a" d="M30 0v-248h33v221h125V0H30" id="y"/><path fill="#3a414a" d="M114-163C36-179 61-72 57 0H25l-1-190h30c1 12-1 29 2 39 6-27 23-49 58-41v29" id="z"/><path fill="#3a414a" d="M177-190C167-65 218 103 67 71c-23-6-38-20-44-43l32-5c15 47 100 32 89-28v-30C133-14 115 1 83 1 29 1 15-40 15-95c0-56 16-97 71-98 29-1 48 16 59 35 1-10 0-23 2-32h30zM94-22c36 0 50-32 50-73 0-42-14-75-50-75-39 0-46 34-46 75s6 73 46 73" id="A"/><g id="c"><use transform="matrix(0.1111111111111111,0,0,0.1111111111111111,0,0)" xlink:href="#y"/><use transform="matrix(0.1111111111111111,0,0,0.1111111111111111,22.22222222222222,0)" xlink:href="#x"/><use transform="matrix(0.1111111111111111,0,0,0.1111111111111111,44.44444444444444,0)" xlink:href="#s"/><use transform="matrix(0.1111111111111111,0,0,0.1111111111111111,66.66666666666666,0)" xlink:href="#z"/><use transform="matrix(0.1111111111111111,0,0,0.1111111111111111,79.88888888888889,0)" xlink:href="#w"/><use transform="matrix(0.1111111111111111,0,0,0.1111111111111111,102.11111111111111,0)" xlink:href="#v"/><use transform="matrix(0.1111111111111111,0,0,0.1111111111111111,110.88888888888889,0)" xlink:href="#w"/><use transform="matrix(0.1111111111111111,0,0,0.1111111111111111,133.11111111111111,0)" xlink:href="#A"/></g><linearGradient gradientUnits="userSpaceOnUse" id="d" x1="1360" y1="836.84" x2="1360" y2="963.33"><stop offset="0%" stop-color="#fff"/><stop offset="70.78%" stop-color="#cfe4ff"/><stop offset="100%" stop-color="#8abdff"/></linearGradient><path fill="#3a414a" d="M185-189c-5-48-123-54-124 2 14 75 158 14 163 119 3 78-121 87-175 55-17-10-28-26-33-46l33-7c5 56 141 63 141-1 0-78-155-14-162-118-5-82 145-84 179-34 5 7 8 16 11 25" id="B"/><path fill="#3a414a" d="M84 4C-5 8 30-112 23-190h32v120c0 31 7 50 39 49 72-2 45-101 50-169h31l1 190h-30c-1-10 1-25-2-33-11 22-28 36-60 37" id="C"/><path fill="#3a414a" d="M115-194c55 1 70 41 70 98S169 2 115 4C84 4 66-9 55-30l1 105H24l-1-265h31l2 30c10-21 28-34 59-34zm-8 174c40 0 45-34 45-75s-6-73-45-74c-42 0-51 32-51 76 0 43 10 73 51 73" id="D"/><path fill="#3a414a" d="M108 0H70L1-190h34L89-25l56-165h34" id="E"/><path fill="#3a414a" d="M135-143c-3-34-86-38-87 0 15 53 115 12 119 90S17 21 10-45l28-5c4 36 97 45 98 0-10-56-113-15-118-90-4-57 82-63 122-42 12 7 21 19 24 35" id="F"/><path fill="#3a414a" d="M85-194c31 0 48 13 60 33l-1-100h32l1 261h-30c-2-10 0-23-3-31C134-8 116 4 85 4 32 4 16-35 15-94c0-66 23-100 70-100zm9 24c-40 0-46 34-46 75 0 40 6 74 45 74 42 0 51-32 51-76 0-42-9-74-50-73" id="G"/><g id="e"><use transform="matrix(0.1111111111111111,0,0,0.1111111111111111,0,0)" xlink:href="#B"/><use transform="matrix(0.1111111111111111,0,0,0.1111111111111111,26.666666666666664,0)" xlink:href="#C"/><use transform="matrix(0.1111111111111111,0,0,0.1111111111111111,48.888888888888886,0)" xlink:href="#D"/><use transform="matrix(0.1111111111111111,0,0,0.1111111111111111,71.11111111111111,0)" xlink:href="#x"/><use transform="matrix(0.1111111111111111,0,0,0.1111111111111111,93.33333333333334,0)" xlink:href="#z"/><use transform="matrix(0.1111111111111111,0,0,0.1111111111111111,106.55555555555557,0)" xlink:href="#E"/><use transform="matrix(0.1111111111111111,0,0,0.1111111111111111,126.55555555555557,0)" xlink:href="#v"/><use transform="matrix(0.1111111111111111,0,0,0.1111111111111111,135.33333333333334,0)" xlink:href="#F"/><use transform="matrix(0.1111111111111111,0,0,0.1111111111111111,155.33333333333334,0)" xlink:href="#x"/><use transform="matrix(0.1111111111111111,0,0,0.1111111111111111,177.55555555555557,0)" xlink:href="#G"/></g><linearGradient gradientUnits="userSpaceOnUse" id="f" x1="2080" y1="836.84" x2="2080" y2="963.33"><stop offset="0%" stop-color="#fff"/><stop offset="70.78%" stop-color="#cfe4ff"/><stop offset="100%" stop-color="#8abdff"/></linearGradient><path fill="#3a414a" d="M232-93c-1 65-40 97-104 97C67 4 28-28 28-90v-158h33c8 89-33 224 67 224 102 0 64-133 71-224h33v155" id="H"/><g id="g"><use transform="matrix(0.1111111111111111,0,0,0.1111111111111111,0,0)" xlink:href="#H"/><use transform="matrix(0.1111111111111111,0,0,0.1111111111111111,28.777777777777775,0)" xlink:href="#w"/><use transform="matrix(0.1111111111111111,0,0,0.1111111111111111,51,0)" xlink:href="#F"/><use transform="matrix(0.1111111111111111,0,0,0.1111111111111111,71,0)" xlink:href="#C"/><use transform="matrix(0.1111111111111111,0,0,0.1111111111111111,93.22222222222223,0)" xlink:href="#D"/><use transform="matrix(0.1111111111111111,0,0,0.1111111111111111,115.44444444444446,0)" xlink:href="#x"/><use transform="matrix(0.1111111111111111,0,0,0.1111111111111111,137.66666666666669,0)" xlink:href="#z"/><use transform="matrix(0.1111111111111111,0,0,0.1111111111111111,150.8888888888889,0)" xlink:href="#E"/><use transform="matrix(0.1111111111111111,0,0,0.1111111111111111,170.8888888888889,0)" xlink:href="#v"/><use transform="matrix(0.1111111111111111,0,0,0.1111111111111111,179.66666666666669,0)" xlink:href="#F"/><use transform="matrix(0.1111111111111111,0,0,0.1111111111111111,199.66666666666669,0)" xlink:href="#x"/><use transform="matrix(0.1111111111111111,0,0,0.1111111111111111,221.8888888888889,0)" xlink:href="#G"/></g><linearGradient gradientUnits="userSpaceOnUse" id="h" x1="1240" y1="1084.86" x2="1240" y2="1211.35"><stop offset="0%" stop-color="#fff"/><stop offset="70.78%" stop-color="#cfe4ff"/><stop offset="100%" stop-color="#8abdff"/></linearGradient><path fill="#3a414a" d="M233-177c-1 41-23 64-60 70L243 0h-38l-65-103H63V0H30v-248c88 3 205-21 203 71zM63-129c60-2 137 13 137-47 0-61-80-42-137-45v92" id="I"/><path fill="#3a414a" d="M100-194c62-1 85 37 85 99 1 63-27 99-86 99S16-35 15-95c0-66 28-99 85-99zM99-20c44 1 53-31 53-75 0-43-8-75-51-75s-53 32-53 75 10 74 51 75" id="J"/><g id="i"><use transform="matrix(0.1111111111111111,0,0,0.1111111111111111,0,0)" xlink:href="#I"/><use transform="matrix(0.1111111111111111,0,0,0.1111111111111111,28.777777777777775,0)" xlink:href="#x"/><use transform="matrix(0.1111111111111111,0,0,0.1111111111111111,51,0)" xlink:href="#A"/><use transform="matrix(0.1111111111111111,0,0,0.1111111111111111,73.22222222222223,0)" xlink:href="#z"/><use transform="matrix(0.1111111111111111,0,0,0.1111111111111111,86.44444444444446,0)" xlink:href="#x"/><use transform="matrix(0.1111111111111111,0,0,0.1111111111111111,108.66666666666669,0)" xlink:href="#F"/><use transform="matrix(0.1111111111111111,0,0,0.1111111111111111,128.66666666666669,0)" xlink:href="#F"/><use transform="matrix(0.1111111111111111,0,0,0.1111111111111111,148.66666666666669,0)" xlink:href="#v"/><use transform="matrix(0.1111111111111111,0,0,0.1111111111111111,157.44444444444446,0)" xlink:href="#J"/><use transform="matrix(0.1111111111111111,0,0,0.1111111111111111,179.66666666666669,0)" xlink:href="#w"/></g><linearGradient gradientUnits="userSpaceOnUse" id="j" x1="1580" y1="1084.86" x2="1580" y2="1211.35"><stop offset="0%" stop-color="#fff"/><stop offset="70.78%" stop-color="#cfe4ff"/><stop offset="100%" stop-color="#8abdff"/></linearGradient><path fill="#3a414a" d="M212-179c-10-28-35-45-73-45-59 0-87 40-87 99 0 60 29 101 89 101 43 0 62-24 78-52l27 14C228-24 195 4 139 4 59 4 22-46 18-125c-6-104 99-153 187-111 19 9 31 26 39 46" id="K"/><path fill="#3a414a" d="M24 0v-261h32V0H24" id="L"/><path fill="#3a414a" d="M101-234c-31-9-42 10-38 44h38v23H63V0H32v-167H5v-23h27c-7-52 17-82 69-68v24" id="M"/><path fill="#3a414a" d="M59-47c-2 24 18 29 38 22v24C64 9 27 4 27-40v-127H5v-23h24l9-43h21v43h35v23H59v120" id="N"/><g id="k"><use transform="matrix(0.1111111111111111,0,0,0.1111111111111111,0,0)" xlink:href="#K"/><use transform="matrix(0.1111111111111111,0,0,0.1111111111111111,28.777777777777775,0)" xlink:href="#L"/><use transform="matrix(0.1111111111111111,0,0,0.1111111111111111,37.55555555555555,0)" xlink:href="#s"/><use transform="matrix(0.1111111111111111,0,0,0.1111111111111111,59.77777777777777,0)" xlink:href="#F"/><use transform="matrix(0.1111111111111111,0,0,0.1111111111111111,79.77777777777777,0)" xlink:href="#F"/><use transform="matrix(0.1111111111111111,0,0,0.1111111111111111,99.77777777777777,0)" xlink:href="#v"/><use transform="matrix(0.1111111111111111,0,0,0.1111111111111111,108.55555555555554,0)" xlink:href="#M"/><use transform="matrix(0.1111111111111111,0,0,0.1111111111111111,119.66666666666666,0)" xlink:href="#v"/><use transform="matrix(0.1111111111111111,0,0,0.1111111111111111,128.44444444444443,0)" xlink:href="#t"/><use transform="matrix(0.1111111111111111,0,0,0.1111111111111111,148.44444444444443,0)" xlink:href="#s"/><use transform="matrix(0.1111111111111111,0,0,0.1111111111111111,170.66666666666666,0)" xlink:href="#N"/><use transform="matrix(0.1111111111111111,0,0,0.1111111111111111,181.77777777777777,0)" xlink:href="#v"/><use transform="matrix(0.1111111111111111,0,0,0.1111111111111111,190.55555555555554,0)" xlink:href="#J"/><use transform="matrix(0.1111111111111111,0,0,0.1111111111111111,212.77777777777777,0)" xlink:href="#w"/></g><linearGradient gradientUnits="userSpaceOnUse" id="l" x1="1960" y1="1088.1" x2="1960" y2="1208.1"><stop offset="0%" stop-color="#fff"/><stop offset="70.78%" stop-color="#cfe4ff"/><stop offset="100%" stop-color="#8abdff"/></linearGradient><g id="m"><use transform="matrix(0.1111111111111111,0,0,0.1111111111111111,0,0)" xlink:href="#B"/><use transform="matrix(0.1111111111111111,0,0,0.1111111111111111,26.666666666666664,0)" xlink:href="#N"/><use transform="matrix(0.1111111111111111,0,0,0.1111111111111111,37.77777777777777,0)" xlink:href="#z"/><use transform="matrix(0.1111111111111111,0,0,0.1111111111111111,50.99999999999999,0)" xlink:href="#C"/><use transform="matrix(0.1111111111111111,0,0,0.1111111111111111,73.22222222222221,0)" xlink:href="#t"/><use transform="matrix(0.1111111111111111,0,0,0.1111111111111111,93.22222222222221,0)" xlink:href="#N"/><use transform="matrix(0.1111111111111111,0,0,0.1111111111111111,104.33333333333333,0)" xlink:href="#C"/><use transform="matrix(0.1111111111111111,0,0,0.1111111111111111,126.55555555555554,0)" xlink:href="#z"/><use transform="matrix(0.1111111111111111,0,0,0.1111111111111111,139.77777777777777,0)" xlink:href="#x"/></g><path fill="#3a414a" d="M205 0l-28-72H64L36 0H1l101-248h38L239 0h-34zm-38-99l-47-123c-12 45-31 82-46 123h93" id="O"/><path fill="#3a414a" d="M179-190L93 31C79 59 56 82 12 73V49c39 6 53-20 64-50L1-190h34L92-34l54-156h33" id="P"/><g id="n"><use transform="matrix(0.1111111111111111,0,0,0.1111111111111111,0,0)" xlink:href="#O"/><use transform="matrix(0.1111111111111111,0,0,0.1111111111111111,26.666666666666664,0)" xlink:href="#w"/><use transform="matrix(0.1111111111111111,0,0,0.1111111111111111,48.888888888888886,0)" xlink:href="#s"/><use transform="matrix(0.1111111111111111,0,0,0.1111111111111111,71.11111111111111,0)" xlink:href="#L"/><use transform="matrix(0.1111111111111111,0,0,0.1111111111111111,79.88888888888889,0)" xlink:href="#P"/><use transform="matrix(0.1111111111111111,0,0,0.1111111111111111,99.88888888888889,0)" xlink:href="#F"/><use transform="matrix(0.1111111111111111,0,0,0.1111111111111111,119.88888888888889,0)" xlink:href="#v"/><use transform="matrix(0.1111111111111111,0,0,0.1111111111111111,128.66666666666666,0)" xlink:href="#F"/></g><linearGradient gradientUnits="userSpaceOnUse" id="o" x1="2300" y1="1088.1" x2="2300" y2="1208.1"><stop offset="0%" stop-color="#fff"/><stop offset="70.78%" stop-color="#cfe4ff"/><stop offset="100%" stop-color="#8abdff"/></linearGradient><path fill="#3a414a" d="M30-248c118-7 216 8 213 122C240-48 200 0 122 0H30v-248zM63-27c89 8 146-16 146-99s-60-101-146-95v194" id="Q"/><g id="p"><use transform="matrix(0.1111111111111111,0,0,0.1111111111111111,0,0)" xlink:href="#Q"/><use transform="matrix(0.1111111111111111,0,0,0.1111111111111111,28.777777777777775,0)" xlink:href="#x"/><use transform="matrix(0.1111111111111111,0,0,0.1111111111111111,51,0)" xlink:href="#w"/><use transform="matrix(0.1111111111111111,0,0,0.1111111111111111,73.22222222222223,0)" xlink:href="#F"/><use transform="matrix(0.1111111111111111,0,0,0.1111111111111111,93.22222222222223,0)" xlink:href="#v"/><use transform="matrix(0.1111111111111111,0,0,0.1111111111111111,102,0)" xlink:href="#N"/><use transform="matrix(0.1111111111111111,0,0,0.1111111111111111,113.11111111111111,0)" xlink:href="#P"/></g><path fill="#3a414a" d="M30 0v-248h187v28H63v79h144v27H63v87h162V0H30" id="R"/><path fill="#3a414a" d="M210-169c-67 3-38 105-44 169h-31v-121c0-29-5-50-35-48C34-165 62-65 56 0H25l-1-190h30c1 10-1 24 2 32 10-44 99-50 107 0 11-21 27-35 58-36 85-2 47 119 55 194h-31v-121c0-29-5-49-35-48" id="S"/><g id="q"><use transform="matrix(0.1111111111111111,0,0,0.1111111111111111,0,0)" xlink:href="#R"/><use transform="matrix(0.1111111111111111,0,0,0.1111111111111111,26.666666666666664,0)" xlink:href="#F"/><use transform="matrix(0.1111111111111111,0,0,0.1111111111111111,46.666666666666664,0)" xlink:href="#N"/><use transform="matrix(0.1111111111111111,0,0,0.1111111111111111,57.77777777777777,0)" xlink:href="#v"/><use transform="matrix(0.1111111111111111,0,0,0.1111111111111111,66.55555555555554,0)" xlink:href="#S"/><use transform="matrix(0.1111111111111111,0,0,0.1111111111111111,99.77777777777777,0)" xlink:href="#s"/><use transform="matrix(0.1111111111111111,0,0,0.1111111111111111,122,0)" xlink:href="#N"/><use transform="matrix(0.1111111111111111,0,0,0.1111111111111111,133.11111111111111,0)" xlink:href="#v"/><use transform="matrix(0.1111111111111111,0,0,0.1111111111111111,141.88888888888889,0)" xlink:href="#J"/><use transform="matrix(0.1111111111111111,0,0,0.1111111111111111,164.11111111111111,0)" xlink:href="#w"/></g></defs></g></svg>