<svg xmlns="http://www.w3.org/2000/svg" xmlns:xlink="http://www.w3.org/1999/xlink" xmlns:lucid="lucid" width="1170" height="712"><g transform="translate(-1171 -3003)" lucid:page-tab-id="0_0"><path d="M960 3329a6 6 0 0 1 6-6h188a6 6 0 0 1 6 6v65a6 6 0 0 1-6 6H966a6 6 0 0 1-6-6z" stroke="#000" stroke-opacity="0" fill="#fff" fill-opacity="0"/><use xlink:href="#a" transform="matrix(1,0,0,1,965,3328) translate(8.740740740740762 38.08333333333333)"/><use xlink:href="#b" transform="matrix(1,0,0,1,965,3328) translate(68.81481481481484 38.08333333333333)"/><use xlink:href="#c" transform="matrix(1,0,0,1,965,3328) translate(166.44444444444443 38.08333333333333)"/><path d="M1600 3360c0 88.37-71.63 160-160 160s-160-71.63-160-160 71.63-160 160-160 160 71.63 160 160z" stroke="#3a414a" fill="url(#d)"/><use xlink:href="#e" transform="matrix(1,0,0,1,1285,3205) translate(86.33333333333337 161.80208333333331)"/><path d="M1920 3360c0 44.18-35.82 80-80 80s-80-35.82-80-80 35.82-80 80-80 80 35.82 80 80z" stroke="#3a414a" fill="url(#f)"/><use xlink:href="#g" transform="matrix(1,0,0,1,1765,3285) translate(48.671666666666674 63.52083333333333)"/><use xlink:href="#h" transform="matrix(1,0,0,1,1765,3285) translate(28.44944444444446 95.52083333333331)"/><path d="M1320 3546a6 6 0 0 1 6-6h228a6 6 0 0 1 6 6v48a6 6 0 0 1-6 6h-228a6 6 0 0 1-6-6z" stroke="#000" stroke-opacity="0" fill="#fff" fill-opacity="0"/><use xlink:href="#i" transform="matrix(1,0,0,1,1325,3545) translate(38.11111111111113 30.708333333333332)"/><use xlink:href="#j" transform="matrix(1,0,0,1,1325,3545) translate(101.66666666666667 30.708333333333332)"/><path d="M2080 3329a6 6 0 0 1 6-6h188a6 6 0 0 1 6 6v65a6 6 0 0 1-6 6h-188a6 6 0 0 1-6-6z" stroke="#000" stroke-opacity="0" fill="#fff" fill-opacity="0"/><use xlink:href="#k" transform="matrix(1,0,0,1,2085,3328) translate(3.6296296296296475 23.427083333333332)"/><use xlink:href="#l" transform="matrix(1,0,0,1,2085,3328) translate(63.70370370370372 23.427083333333332)"/><use xlink:href="#m" transform="matrix(1,0,0,1,2085,3328) translate(161.33333333333331 23.427083333333332)"/><use xlink:href="#n" transform="matrix(1,0,0,1,2085,3328) translate(42.51851851851852 55.42708333333333)"/><use xlink:href="#o" transform="matrix(1,0,0,1,2085,3328) translate(128.2962962962963 55.42708333333333)"/><path d="M1602.5 3360h143.77" stroke="#3a414a" stroke-width="4" fill="none"/><path d="M1602.55 3362h-2.1l.05-2-.02-2h2.07z" stroke="#3a414a" stroke-width=".05" fill="#3a414a"/><path d="M1755.57 3360l-12.9 7.64v-15.28z" stroke="#3a414a" stroke-width="4" fill="#3a414a"/><path d="M1922.5 3360h144.27" stroke="#3a414a" stroke-width="4" fill="none"/><path d="M1922.55 3362h-2.1l.05-2v-.7l-.06-1.3h2.1z" stroke="#3a414a" stroke-width=".05" fill="#3a414a"/><path d="M2076.07 3360l-12.9 7.64v-15.28z" stroke="#3a414a" stroke-width="4" fill="#3a414a"/><path d="M2000 3149a6 6 0 0 1 6-6h188a6 6 0 0 1 6 6v65a6 6 0 0 1-6 6h-188a6 6 0 0 1-6-6z" stroke="#000" stroke-opacity="0" fill="#fff" fill-opacity="0"/><use xlink:href="#k" transform="matrix(1,0,0,1,2005,3148) translate(3.6296296296296475 23.427083333333332)"/><use xlink:href="#l" transform="matrix(1,0,0,1,2005,3148) translate(63.70370370370372 23.427083333333332)"/><use xlink:href="#m" transform="matrix(1,0,0,1,2005,3148) translate(161.33333333333331 23.427083333333332)"/><use xlink:href="#n" transform="matrix(1,0,0,1,2005,3148) translate(42.51851851851852 55.42708333333333)"/><use xlink:href="#p" transform="matrix(1,0,0,1,2005,3148) translate(128.2962962962963 55.42708333333333)"/><path d="M2000 3526a6 6 0 0 1 6-6h188a6 6 0 0 1 6 6v65a6 6 0 0 1-6 6h-188a6 6 0 0 1-6-6z" stroke="#000" stroke-opacity="0" fill="#fff" fill-opacity="0"/><g><use xlink:href="#k" transform="matrix(1,0,0,1,2005,3525) translate(3.6296296296296475 23.427083333333332)"/><use xlink:href="#l" transform="matrix(1,0,0,1,2005,3525) translate(63.70370370370372 23.427083333333332)"/><use xlink:href="#m" transform="matrix(1,0,0,1,2005,3525) translate(161.33333333333331 23.427083333333332)"/><use xlink:href="#n" transform="matrix(1,0,0,1,2005,3525) translate(42.51851851851852 55.42708333333333)"/><use xlink:href="#q" transform="matrix(1,0,0,1,2005,3525) translate(128.2962962962963 55.42708333333333)"/></g><path d="M1888.24 3426.82l101.6 84.7" stroke="#3a414a" stroke-width="4" fill="none"/><path d="M1889.56 3425.32l-2.56 3.07-2-1.68 2.6-1.8.77-.6z" stroke="#3a414a" stroke-width=".05" fill="#3a414a"/><path d="M1996.98 3517.48l-14.8-2.4 9.77-11.73z" stroke="#3a414a" stroke-width="4" fill="#3a414a"/><path d="M1883.55 3290.1l106-82" stroke="#3a414a" stroke-width="4" fill="none"/><path d="M1884.82 3291.65l-1.05.8-.9-.6-2.76-1.62 2.27-1.74z" stroke="#3a414a" stroke-width=".05" fill="#3a414a"/><path d="M1996.9 3202.4l-5.55 13.94-9.34-12.07z" stroke="#3a414a" stroke-width="4" fill="#3a414a"/><defs><path d="M136-208V0H84v-208H4v-40h212v40h-80" id="r"/><path d="M185-48c-13 30-37 53-82 52C43 2 14-33 14-96s30-98 90-98c62 0 83 45 84 108H66c0 31 8 55 39 56 18 0 30-7 34-22zm-45-69c5-46-57-63-70-21-2 6-4 13-4 21h74" id="s"/><path d="M137-138c1-29-70-34-71-4 15 46 118 7 119 86 1 83-164 76-172 9l43-7c4 19 20 25 44 25 33 8 57-30 24-41C81-84 22-81 20-136c-2-80 154-74 161-7" id="t"/><path d="M115-3C79 11 28 4 28-45v-112H4v-33h27l15-45h31v45h36v33H77v99c-1 23 16 31 38 25v30" id="u"/><g id="a"><use transform="matrix(0.07407407407407407,0,0,0.07407407407407407,0,0)" xlink:href="#r"/><use transform="matrix(0.07407407407407407,0,0,0.07407407407407407,14.222222222222221,0)" xlink:href="#s"/><use transform="matrix(0.07407407407407407,0,0,0.07407407407407407,29.037037037037035,0)" xlink:href="#t"/><use transform="matrix(0.07407407407407407,0,0,0.07407407407407407,43.85185185185185,0)" xlink:href="#u"/></g><path d="M140-251c80 0 125 45 125 126 0 70-33 111-92 124 6 28 34 38 68 31l-1 36C177 83 129 55 120 2 51-6 15-50 15-125c0-81 44-126 125-126zm-1 214c52 0 73-35 73-88 0-50-21-86-72-86-52 0-73 35-73 86s22 88 72 88" id="v"/><path d="M85 4C-2 5 27-109 22-190h50c7 57-23 150 33 157 60-5 35-97 40-157h50l1 190h-47c-2-12 1-28-3-38-12 25-28 42-61 42" id="w"/><path d="M133-34C117-15 103 5 69 4 32 3 11-16 11-54c-1-60 55-63 116-61 1-26-3-47-28-47-18 1-26 9-28 27l-52-2c7-38 36-58 82-57s74 22 75 68l1 82c-1 14 12 18 25 15v27c-30 8-71 5-69-32zm-48 3c29 0 43-24 42-57-32 0-66-3-65 30 0 17 8 27 23 27" id="x"/><path d="M25 0v-261h50V0H25" id="y"/><path d="M25-224v-37h50v37H25zM25 0v-190h50V0H25" id="z"/><path d="M123 10C108 53 80 86 19 72V37c35 8 53-11 59-39L3-190h52l48 148c12-52 28-100 44-148h51" id="A"/><g id="b"><use transform="matrix(0.07407407407407407,0,0,0.07407407407407407,0,0)" xlink:href="#v"/><use transform="matrix(0.07407407407407407,0,0,0.07407407407407407,20.74074074074074,0)" xlink:href="#w"/><use transform="matrix(0.07407407407407407,0,0,0.07407407407407407,36.96296296296296,0)" xlink:href="#x"/><use transform="matrix(0.07407407407407407,0,0,0.07407407407407407,51.77777777777777,0)" xlink:href="#y"/><use transform="matrix(0.07407407407407407,0,0,0.07407407407407407,59.185185185185176,0)" xlink:href="#z"/><use transform="matrix(0.07407407407407407,0,0,0.07407407407407407,66.59259259259258,0)" xlink:href="#u"/><use transform="matrix(0.07407407407407407,0,0,0.07407407407407407,75.40740740740739,0)" xlink:href="#A"/></g><path d="M182-182c0 78-84 86-111 141h115V0H12c-6-101 99-100 120-180 1-22-12-31-33-32-23 0-32 14-35 34l-49-3c5-45 32-70 84-70 51 0 83 22 83 69" id="B"/><use transform="matrix(0.07407407407407407,0,0,0.07407407407407407,0,0)" xlink:href="#B" id="c"/><linearGradient gradientUnits="userSpaceOnUse" id="d" x1="1280" y1="3200" x2="1280" y2="3520"><stop offset="0%" stop-color="#fff"/><stop offset="50.55%" stop-color="#cfe4ff"/><stop offset="100%" stop-color="#8abdff"/></linearGradient><path fill="#3a414a" d="M24-248c93 1 206-16 204 79-1 75-69 88-152 82V0H24v-248zm52 121c47 0 100 7 100-41 0-47-54-39-100-39v80" id="C"/><path fill="#3a414a" d="M110-194c64 0 96 36 96 99 0 64-35 99-97 99-61 0-95-36-95-99 0-62 34-99 96-99zm-1 164c35 0 45-28 45-65 0-40-10-65-43-65-34 0-45 26-45 65 0 36 10 65 43 65" id="D"/><path fill="#3a414a" d="M135-194c53 0 70 44 70 98 0 56-19 98-73 100-31 1-45-17-59-34 3 33 2 69 2 105H25l-1-265h48c2 10 0 23 3 31 11-24 29-35 60-35zM114-30c33 0 39-31 40-66 0-38-9-64-40-64-56 0-55 130 0 130" id="E"/><path fill="#3a414a" d="M85 4C-2 5 27-109 22-190h50c7 57-23 150 33 157 60-5 35-97 40-157h50l1 190h-47c-2-12 1-28-3-38-12 25-28 42-61 42" id="F"/><path fill="#3a414a" d="M25 0v-261h50V0H25" id="G"/><path fill="#3a414a" d="M133-34C117-15 103 5 69 4 32 3 11-16 11-54c-1-60 55-63 116-61 1-26-3-47-28-47-18 1-26 9-28 27l-52-2c7-38 36-58 82-57s74 22 75 68l1 82c-1 14 12 18 25 15v27c-30 8-71 5-69-32zm-48 3c29 0 43-24 42-57-32 0-66-3-65 30 0 17 8 27 23 27" id="H"/><path fill="#3a414a" d="M115-3C79 11 28 4 28-45v-112H4v-33h27l15-45h31v45h36v33H77v99c-1 23 16 31 38 25v30" id="I"/><path fill="#3a414a" d="M25-224v-37h50v37H25zM25 0v-190h50V0H25" id="J"/><path fill="#3a414a" d="M135-194c87-1 58 113 63 194h-50c-7-57 23-157-34-157-59 0-34 97-39 157H25l-1-190h47c2 12-1 28 3 38 12-26 28-41 61-42" id="K"/><g id="e"><use transform="matrix(0.07407407407407404,0,0,0.07407407407407404,0,0)" xlink:href="#C"/><use transform="matrix(0.07407407407407404,0,0,0.07407407407407404,17.77777777777777,0)" xlink:href="#D"/><use transform="matrix(0.07407407407407404,0,0,0.07407407407407404,33.999999999999986,0)" xlink:href="#E"/><use transform="matrix(0.07407407407407404,0,0,0.07407407407407404,50.2222222222222,0)" xlink:href="#F"/><use transform="matrix(0.07407407407407404,0,0,0.07407407407407404,66.44444444444441,0)" xlink:href="#G"/><use transform="matrix(0.07407407407407404,0,0,0.07407407407407404,73.85185185185182,0)" xlink:href="#H"/><use transform="matrix(0.07407407407407404,0,0,0.07407407407407404,88.66666666666663,0)" xlink:href="#I"/><use transform="matrix(0.07407407407407404,0,0,0.07407407407407404,97.48148148148144,0)" xlink:href="#J"/><use transform="matrix(0.07407407407407404,0,0,0.07407407407407404,104.88888888888884,0)" xlink:href="#D"/><use transform="matrix(0.07407407407407404,0,0,0.07407407407407404,121.11111111111106,0)" xlink:href="#K"/></g><linearGradient gradientUnits="userSpaceOnUse" id="f" x1="1760" y1="3280" x2="1760" y2="3440"><stop offset="0%" stop-color="#fff"/><stop offset="61.79%" stop-color="#ffdda6"/><stop offset="100%" stop-color="#ffc362"/></linearGradient><path fill="#3a414a" d="M136-208V0H84v-208H4v-40h212v40h-80" id="L"/><path fill="#3a414a" d="M185-48c-13 30-37 53-82 52C43 2 14-33 14-96s30-98 90-98c62 0 83 45 84 108H66c0 31 8 55 39 56 18 0 30-7 34-22zm-45-69c5-46-57-63-70-21-2 6-4 13-4 21h74" id="M"/><path fill="#3a414a" d="M137-138c1-29-70-34-71-4 15 46 118 7 119 86 1 83-164 76-172 9l43-7c4 19 20 25 44 25 33 8 57-30 24-41C81-84 22-81 20-136c-2-80 154-74 161-7" id="N"/><g id="g"><use transform="matrix(0.07407407407407404,0,0,0.07407407407407404,0,0)" xlink:href="#L"/><use transform="matrix(0.07407407407407404,0,0,0.07407407407407404,14.222222222222214,0)" xlink:href="#M"/><use transform="matrix(0.07407407407407404,0,0,0.07407407407407404,29.037037037037024,0)" xlink:href="#N"/><use transform="matrix(0.07407407407407404,0,0,0.07407407407407404,43.85185185185183,0)" xlink:href="#I"/></g><path fill="#3a414a" d="M88-194c31-1 46 15 58 34l-1-101h50l1 261h-48c-2-10 0-23-3-31C134-8 116 4 84 4 32 4 16-41 15-95c0-56 19-97 73-99zm17 164c33 0 40-30 41-66 1-37-9-64-41-64s-38 30-39 65c0 43 13 65 39 65" id="O"/><g id="h"><use transform="matrix(0.07407407407407404,0,0,0.07407407407407404,0,0)" xlink:href="#O"/><use transform="matrix(0.07407407407407404,0,0,0.07407407407407404,16.222222222222214,0)" xlink:href="#H"/><use transform="matrix(0.07407407407407404,0,0,0.07407407407407404,31.037037037037024,0)" xlink:href="#I"/><use transform="matrix(0.07407407407407404,0,0,0.07407407407407404,39.85185185185183,0)" xlink:href="#H"/><use transform="matrix(0.07407407407407404,0,0,0.07407407407407404,54.66666666666664,0)" xlink:href="#N"/><use transform="matrix(0.07407407407407404,0,0,0.07407407407407404,69.48148148148145,0)" xlink:href="#M"/><use transform="matrix(0.07407407407407404,0,0,0.07407407407407404,84.29629629629626,0)" xlink:href="#I"/></g><path d="M135-150c-39-12-60 13-60 57V0H25l-1-190h47c2 13-1 29 3 40 6-28 27-53 61-41v41" id="P"/><g id="i"><use transform="matrix(0.07407407407407407,0,0,0.07407407407407407,0,0)" xlink:href="#r"/><use transform="matrix(0.07407407407407407,0,0,0.07407407407407407,14.74074074074074,0)" xlink:href="#P"/><use transform="matrix(0.07407407407407407,0,0,0.07407407407407407,25.11111111111111,0)" xlink:href="#w"/><use transform="matrix(0.07407407407407407,0,0,0.07407407407407407,41.33333333333333,0)" xlink:href="#s"/></g><g id="j"><use transform="matrix(0.07407407407407407,0,0,0.07407407407407407,0,0)" xlink:href="#v"/><use transform="matrix(0.07407407407407407,0,0,0.07407407407407407,20.74074074074074,0)" xlink:href="#w"/><use transform="matrix(0.07407407407407407,0,0,0.07407407407407407,36.96296296296296,0)" xlink:href="#x"/><use transform="matrix(0.07407407407407407,0,0,0.07407407407407407,51.77777777777777,0)" xlink:href="#y"/><use transform="matrix(0.07407407407407407,0,0,0.07407407407407407,59.185185185185176,0)" xlink:href="#z"/><use transform="matrix(0.07407407407407407,0,0,0.07407407407407407,66.59259259259258,0)" xlink:href="#u"/><use transform="matrix(0.07407407407407407,0,0,0.07407407407407407,75.40740740740739,0)" xlink:href="#A"/></g><g id="k"><use transform="matrix(0.07407407407407407,0,0,0.07407407407407407,0,0)" xlink:href="#r"/><use transform="matrix(0.07407407407407407,0,0,0.07407407407407407,14.222222222222221,0)" xlink:href="#s"/><use transform="matrix(0.07407407407407407,0,0,0.07407407407407407,29.037037037037035,0)" xlink:href="#t"/><use transform="matrix(0.07407407407407407,0,0,0.07407407407407407,43.85185185185185,0)" xlink:href="#u"/></g><g id="l"><use transform="matrix(0.07407407407407407,0,0,0.07407407407407407,0,0)" xlink:href="#v"/><use transform="matrix(0.07407407407407407,0,0,0.07407407407407407,20.74074074074074,0)" xlink:href="#w"/><use transform="matrix(0.07407407407407407,0,0,0.07407407407407407,36.96296296296296,0)" xlink:href="#x"/><use transform="matrix(0.07407407407407407,0,0,0.07407407407407407,51.77777777777777,0)" xlink:href="#y"/><use transform="matrix(0.07407407407407407,0,0,0.07407407407407407,59.185185185185176,0)" xlink:href="#z"/><use transform="matrix(0.07407407407407407,0,0,0.07407407407407407,66.59259259259258,0)" xlink:href="#u"/><use transform="matrix(0.07407407407407407,0,0,0.07407407407407407,75.40740740740739,0)" xlink:href="#A"/></g><path d="M110-194c64 0 96 36 96 99 0 64-35 99-97 99-61 0-95-36-95-99 0-62 34-99 96-99zm-1 164c35 0 45-28 45-65 0-40-10-65-43-65-34 0-45 26-45 65 0 36 10 65 43 65" id="Q"/><path d="M121-226c-27-7-43 5-38 36h38v33H83V0H34v-157H6v-33h28c-9-59 32-81 87-68v32" id="R"/><g id="m"><use transform="matrix(0.07407407407407407,0,0,0.07407407407407407,0,0)" xlink:href="#Q"/><use transform="matrix(0.07407407407407407,0,0,0.07407407407407407,16.22222222222222,0)" xlink:href="#R"/></g><path d="M220-157c-53 9-28 100-34 157h-49v-107c1-27-5-49-29-50C55-147 81-57 75 0H25l-1-190h47c2 12-1 28 3 38 10-53 101-56 108 0 13-22 24-43 59-42 82 1 51 116 57 194h-49v-107c-1-25-5-48-29-50" id="S"/><path d="M88-194c31-1 46 15 58 34l-1-101h50l1 261h-48c-2-10 0-23-3-31C134-8 116 4 84 4 32 4 16-41 15-95c0-56 19-97 73-99zm17 164c33 0 40-30 41-66 1-37-9-64-41-64s-38 30-39 65c0 43 13 65 39 65" id="T"/><g id="n"><use transform="matrix(0.07407407407407407,0,0,0.07407407407407407,0,0)" xlink:href="#S"/><use transform="matrix(0.07407407407407407,0,0,0.07407407407407407,23.703703703703702,0)" xlink:href="#Q"/><use transform="matrix(0.07407407407407407,0,0,0.07407407407407407,39.925925925925924,0)" xlink:href="#T"/><use transform="matrix(0.07407407407407407,0,0,0.07407407407407407,56.148148148148145,0)" xlink:href="#s"/><use transform="matrix(0.07407407407407407,0,0,0.07407407407407407,70.96296296296296,0)" xlink:href="#y"/></g><path d="M182-130c37 4 62 22 62 59C244 23 116-4 24 0v-248c84 5 203-23 205 63 0 31-19 50-47 55zM76-148c40-3 101 13 101-30 0-44-60-28-101-31v61zm0 110c48-3 116 14 116-37 0-48-69-32-116-35v72" id="U"/><use transform="matrix(0.07407407407407407,0,0,0.07407407407407407,0,0)" xlink:href="#U" id="o"/><path d="M199 0l-22-63H83L61 0H9l90-248h61L250 0h-51zm-33-102l-36-108c-10 38-24 72-36 108h72" id="V"/><use transform="matrix(0.07407407407407407,0,0,0.07407407407407407,0,0)" xlink:href="#V" id="p"/><path d="M67-125c0 53 21 87 73 88 37 1 54-22 65-47l45 17C233-25 199 4 140 4 58 4 20-42 15-125 8-235 124-281 211-232c18 10 29 29 36 50l-46 12c-8-25-30-41-62-41-52 0-71 34-72 86" id="W"/><use transform="matrix(0.07407407407407407,0,0,0.07407407407407407,0,0)" xlink:href="#W" id="q"/></defs></g></svg>