<svg xmlns="http://www.w3.org/2000/svg" xmlns:xlink="http://www.w3.org/1999/xlink" xmlns:lucid="lucid" width="1082" height="714"><g transform="translate(-107 -3013)" lucid:page-tab-id="0_0"><path d="M480 3360c0 88.37-71.63 160-160 160s-160-71.63-160-160 71.63-160 160-160 160 71.63 160 160z" stroke="#3a414a" fill="url(#a)"/><use xlink:href="#b" transform="matrix(1,0,0,1,165,3205) translate(86.33333333333337 161.80208333333331)"/><path d="M960 3360c0 44.18-35.82 80-80 80s-80-35.82-80-80 35.82-80 80-80 80 35.82 80 80z" stroke="#3a414a" fill="url(#c)"/><use xlink:href="#d" transform="matrix(1,0,0,1,805,3285) translate(48.671666666666674 63.52083333333333)"/><use xlink:href="#e" transform="matrix(1,0,0,1,805,3285) translate(17.338333333333352 95.52083333333331)"/><use xlink:href="#f" transform="matrix(1,0,0,1,805,3285) translate(117.85685185185184 95.52083333333331)"/><path d="M482.5 3360h303.77" stroke="#3a414a" stroke-width="4" fill="none"/><path d="M482.55 3362h-2.1l.05-2-.02-2h2.07z" stroke="#3a414a" stroke-width=".05" fill="#3a414a"/><path d="M795.57 3360l-12.9 7.64v-15.28z" stroke="#3a414a" stroke-width="4" fill="#3a414a"/><path d="M200 3546a6 6 0 0 1 6-6h228a6 6 0 0 1 6 6v48a6 6 0 0 1-6 6H206a6 6 0 0 1-6-6z" stroke="#000" stroke-opacity="0" fill="#fff" fill-opacity="0"/><use xlink:href="#g" transform="matrix(1,0,0,1,205,3545) translate(38.11111111111113 30.708333333333332)"/><use xlink:href="#h" transform="matrix(1,0,0,1,205,3545) translate(101.66666666666667 30.708333333333332)"/><path d="M960 3329a6 6 0 0 1 6-6h188a6 6 0 0 1 6 6v65a6 6 0 0 1-6 6H966a6 6 0 0 1-6-6z" stroke="#000" stroke-opacity="0" fill="#fff" fill-opacity="0"/><use xlink:href="#i" transform="matrix(1,0,0,1,965,3328) translate(8.740740740740762 38.08333333333333)"/><use xlink:href="#j" transform="matrix(1,0,0,1,965,3328) translate(68.81481481481484 38.08333333333333)"/><use xlink:href="#k" transform="matrix(1,0,0,1,965,3328) translate(166.44444444444443 38.08333333333333)"/><path d="M880 3140c0 44.18-35.82 80-80 80s-80-35.82-80-80 35.82-80 80-80 80 35.82 80 80z" stroke="#3a414a" fill="url(#l)"/><use xlink:href="#d" transform="matrix(1,0,0,1,725,3065) translate(48.671666666666674 63.52083333333333)"/><use xlink:href="#e" transform="matrix(1,0,0,1,725,3065) translate(17.338333333333352 95.52083333333331)"/><use xlink:href="#m" transform="matrix(1,0,0,1,725,3065) translate(117.85685185185184 95.52083333333331)"/><path d="M880 3580c0 44.18-35.82 80-80 80s-80-35.82-80-80 35.82-80 80-80 80 35.82 80 80z" stroke="#3a414a" fill="url(#n)"/><use xlink:href="#d" transform="matrix(1,0,0,1,725,3505) translate(48.671666666666674 63.52083333333333)"/><use xlink:href="#e" transform="matrix(1,0,0,1,725,3505) translate(17.338333333333352 95.52083333333331)"/><use xlink:href="#o" transform="matrix(1,0,0,1,725,3505) translate(117.85685185185184 95.52083333333331)"/><path d="M452.6 3266.25l260.4-91.43" stroke="#3a414a" stroke-width="4" fill="none"/><path d="M453.32 3268.12l-1.37.48-.06-.1-2.4-3.28 2.5-.88z" stroke="#3a414a" stroke-width=".05" fill="#3a414a"/><path d="M721.76 3171.74l-9.65 11.48-5.05-14.4z" stroke="#3a414a" stroke-width="4" fill="#3a414a"/><path d="M461.86 3439.25l249.5 110.46" stroke="#3a414a" stroke-width="4" fill="none"/><path d="M462.72 3437.44l-1.62 3.66-2.07-.92 1.7-2.97.3-.5z" stroke="#3a414a" stroke-width=".05" fill="#3a414a"/><path d="M719.85 3553.47l-14.9 1.76 6.2-13.97z" stroke="#3a414a" stroke-width="4" fill="#3a414a"/><path d="M880 3106a6 6 0 0 1 6-6h188a6 6 0 0 1 6 6v65a6 6 0 0 1-6 6H886a6 6 0 0 1-6-6z" stroke="#000" stroke-opacity="0" fill="#fff" fill-opacity="0"/><g><use xlink:href="#i" transform="matrix(1,0,0,1,885,3105) translate(8.740740740740762 38.08333333333333)"/><use xlink:href="#j" transform="matrix(1,0,0,1,885,3105) translate(68.81481481481484 38.08333333333333)"/><use xlink:href="#p" transform="matrix(1,0,0,1,885,3105) translate(166.44444444444443 38.08333333333333)"/></g><path d="M887 3566a6 6 0 0 1 6-6h187.98a6 6 0 0 1 6 6v65a6 6 0 0 1-6 6h-188a6 6 0 0 1-6-6z" stroke="#000" stroke-opacity="0" fill="#fff" fill-opacity="0"/><g><use xlink:href="#i" transform="matrix(1,0,0,1,891.9854389928983,3565) translate(8.740740740740762 38.08333333333333)"/><use xlink:href="#j" transform="matrix(1,0,0,1,891.9854389928983,3565) translate(68.81481481481484 38.08333333333333)"/><use xlink:href="#q" transform="matrix(1,0,0,1,891.9854389928983,3565) translate(166.44444444444443 38.08333333333333)"/></g><defs><linearGradient gradientUnits="userSpaceOnUse" id="a" x1="160" y1="3200" x2="160" y2="3520"><stop offset="0%" stop-color="#fff"/><stop offset="50.55%" stop-color="#cfe4ff"/><stop offset="100%" stop-color="#8abdff"/></linearGradient><path fill="#3a414a" d="M24-248c93 1 206-16 204 79-1 75-69 88-152 82V0H24v-248zm52 121c47 0 100 7 100-41 0-47-54-39-100-39v80" id="r"/><path fill="#3a414a" d="M110-194c64 0 96 36 96 99 0 64-35 99-97 99-61 0-95-36-95-99 0-62 34-99 96-99zm-1 164c35 0 45-28 45-65 0-40-10-65-43-65-34 0-45 26-45 65 0 36 10 65 43 65" id="s"/><path fill="#3a414a" d="M135-194c53 0 70 44 70 98 0 56-19 98-73 100-31 1-45-17-59-34 3 33 2 69 2 105H25l-1-265h48c2 10 0 23 3 31 11-24 29-35 60-35zM114-30c33 0 39-31 40-66 0-38-9-64-40-64-56 0-55 130 0 130" id="t"/><path fill="#3a414a" d="M85 4C-2 5 27-109 22-190h50c7 57-23 150 33 157 60-5 35-97 40-157h50l1 190h-47c-2-12 1-28-3-38-12 25-28 42-61 42" id="u"/><path fill="#3a414a" d="M25 0v-261h50V0H25" id="v"/><path fill="#3a414a" d="M133-34C117-15 103 5 69 4 32 3 11-16 11-54c-1-60 55-63 116-61 1-26-3-47-28-47-18 1-26 9-28 27l-52-2c7-38 36-58 82-57s74 22 75 68l1 82c-1 14 12 18 25 15v27c-30 8-71 5-69-32zm-48 3c29 0 43-24 42-57-32 0-66-3-65 30 0 17 8 27 23 27" id="w"/><path fill="#3a414a" d="M115-3C79 11 28 4 28-45v-112H4v-33h27l15-45h31v45h36v33H77v99c-1 23 16 31 38 25v30" id="x"/><path fill="#3a414a" d="M25-224v-37h50v37H25zM25 0v-190h50V0H25" id="y"/><path fill="#3a414a" d="M135-194c87-1 58 113 63 194h-50c-7-57 23-157-34-157-59 0-34 97-39 157H25l-1-190h47c2 12-1 28 3 38 12-26 28-41 61-42" id="z"/><g id="b"><use transform="matrix(0.07407407407407404,0,0,0.07407407407407404,0,0)" xlink:href="#r"/><use transform="matrix(0.07407407407407404,0,0,0.07407407407407404,17.77777777777777,0)" xlink:href="#s"/><use transform="matrix(0.07407407407407404,0,0,0.07407407407407404,33.999999999999986,0)" xlink:href="#t"/><use transform="matrix(0.07407407407407404,0,0,0.07407407407407404,50.2222222222222,0)" xlink:href="#u"/><use transform="matrix(0.07407407407407404,0,0,0.07407407407407404,66.44444444444441,0)" xlink:href="#v"/><use transform="matrix(0.07407407407407404,0,0,0.07407407407407404,73.85185185185182,0)" xlink:href="#w"/><use transform="matrix(0.07407407407407404,0,0,0.07407407407407404,88.66666666666663,0)" xlink:href="#x"/><use transform="matrix(0.07407407407407404,0,0,0.07407407407407404,97.48148148148144,0)" xlink:href="#y"/><use transform="matrix(0.07407407407407404,0,0,0.07407407407407404,104.88888888888884,0)" xlink:href="#s"/><use transform="matrix(0.07407407407407404,0,0,0.07407407407407404,121.11111111111106,0)" xlink:href="#z"/></g><linearGradient gradientUnits="userSpaceOnUse" id="c" x1="800" y1="3280" x2="800" y2="3440"><stop offset="0%" stop-color="#fff"/><stop offset="61.79%" stop-color="#ffdda6"/><stop offset="100%" stop-color="#ffc362"/></linearGradient><path fill="#3a414a" d="M136-208V0H84v-208H4v-40h212v40h-80" id="A"/><path fill="#3a414a" d="M185-48c-13 30-37 53-82 52C43 2 14-33 14-96s30-98 90-98c62 0 83 45 84 108H66c0 31 8 55 39 56 18 0 30-7 34-22zm-45-69c5-46-57-63-70-21-2 6-4 13-4 21h74" id="B"/><path fill="#3a414a" d="M137-138c1-29-70-34-71-4 15 46 118 7 119 86 1 83-164 76-172 9l43-7c4 19 20 25 44 25 33 8 57-30 24-41C81-84 22-81 20-136c-2-80 154-74 161-7" id="C"/><g id="d"><use transform="matrix(0.07407407407407404,0,0,0.07407407407407404,0,0)" xlink:href="#A"/><use transform="matrix(0.07407407407407404,0,0,0.07407407407407404,14.222222222222214,0)" xlink:href="#B"/><use transform="matrix(0.07407407407407404,0,0,0.07407407407407404,29.037037037037024,0)" xlink:href="#C"/><use transform="matrix(0.07407407407407404,0,0,0.07407407407407404,43.85185185185183,0)" xlink:href="#x"/></g><path fill="#3a414a" d="M88-194c31-1 46 15 58 34l-1-101h50l1 261h-48c-2-10 0-23-3-31C134-8 116 4 84 4 32 4 16-41 15-95c0-56 19-97 73-99zm17 164c33 0 40-30 41-66 1-37-9-64-41-64s-38 30-39 65c0 43 13 65 39 65" id="D"/><g id="e"><use transform="matrix(0.07407407407407404,0,0,0.07407407407407404,0,0)" xlink:href="#D"/><use transform="matrix(0.07407407407407404,0,0,0.07407407407407404,16.222222222222214,0)" xlink:href="#w"/><use transform="matrix(0.07407407407407404,0,0,0.07407407407407404,31.037037037037024,0)" xlink:href="#x"/><use transform="matrix(0.07407407407407404,0,0,0.07407407407407404,39.85185185185183,0)" xlink:href="#w"/><use transform="matrix(0.07407407407407404,0,0,0.07407407407407404,54.66666666666664,0)" xlink:href="#C"/><use transform="matrix(0.07407407407407404,0,0,0.07407407407407404,69.48148148148145,0)" xlink:href="#B"/><use transform="matrix(0.07407407407407404,0,0,0.07407407407407404,84.29629629629626,0)" xlink:href="#x"/></g><path fill="#3a414a" d="M182-182c0 78-84 86-111 141h115V0H12c-6-101 99-100 120-180 1-22-12-31-33-32-23 0-32 14-35 34l-49-3c5-45 32-70 84-70 51 0 83 22 83 69" id="E"/><use transform="matrix(0.07407407407407404,0,0,0.07407407407407404,0,0)" xlink:href="#E" id="f"/><path d="M136-208V0H84v-208H4v-40h212v40h-80" id="F"/><path d="M135-150c-39-12-60 13-60 57V0H25l-1-190h47c2 13-1 29 3 40 6-28 27-53 61-41v41" id="G"/><path d="M85 4C-2 5 27-109 22-190h50c7 57-23 150 33 157 60-5 35-97 40-157h50l1 190h-47c-2-12 1-28-3-38-12 25-28 42-61 42" id="H"/><path d="M185-48c-13 30-37 53-82 52C43 2 14-33 14-96s30-98 90-98c62 0 83 45 84 108H66c0 31 8 55 39 56 18 0 30-7 34-22zm-45-69c5-46-57-63-70-21-2 6-4 13-4 21h74" id="I"/><g id="g"><use transform="matrix(0.07407407407407407,0,0,0.07407407407407407,0,0)" xlink:href="#F"/><use transform="matrix(0.07407407407407407,0,0,0.07407407407407407,14.74074074074074,0)" xlink:href="#G"/><use transform="matrix(0.07407407407407407,0,0,0.07407407407407407,25.11111111111111,0)" xlink:href="#H"/><use transform="matrix(0.07407407407407407,0,0,0.07407407407407407,41.33333333333333,0)" xlink:href="#I"/></g><path d="M140-251c80 0 125 45 125 126 0 70-33 111-92 124 6 28 34 38 68 31l-1 36C177 83 129 55 120 2 51-6 15-50 15-125c0-81 44-126 125-126zm-1 214c52 0 73-35 73-88 0-50-21-86-72-86-52 0-73 35-73 86s22 88 72 88" id="J"/><path d="M133-34C117-15 103 5 69 4 32 3 11-16 11-54c-1-60 55-63 116-61 1-26-3-47-28-47-18 1-26 9-28 27l-52-2c7-38 36-58 82-57s74 22 75 68l1 82c-1 14 12 18 25 15v27c-30 8-71 5-69-32zm-48 3c29 0 43-24 42-57-32 0-66-3-65 30 0 17 8 27 23 27" id="K"/><path d="M25 0v-261h50V0H25" id="L"/><path d="M25-224v-37h50v37H25zM25 0v-190h50V0H25" id="M"/><path d="M115-3C79 11 28 4 28-45v-112H4v-33h27l15-45h31v45h36v33H77v99c-1 23 16 31 38 25v30" id="N"/><path d="M123 10C108 53 80 86 19 72V37c35 8 53-11 59-39L3-190h52l48 148c12-52 28-100 44-148h51" id="O"/><g id="h"><use transform="matrix(0.07407407407407407,0,0,0.07407407407407407,0,0)" xlink:href="#J"/><use transform="matrix(0.07407407407407407,0,0,0.07407407407407407,20.74074074074074,0)" xlink:href="#H"/><use transform="matrix(0.07407407407407407,0,0,0.07407407407407407,36.96296296296296,0)" xlink:href="#K"/><use transform="matrix(0.07407407407407407,0,0,0.07407407407407407,51.77777777777777,0)" xlink:href="#L"/><use transform="matrix(0.07407407407407407,0,0,0.07407407407407407,59.185185185185176,0)" xlink:href="#M"/><use transform="matrix(0.07407407407407407,0,0,0.07407407407407407,66.59259259259258,0)" xlink:href="#N"/><use transform="matrix(0.07407407407407407,0,0,0.07407407407407407,75.40740740740739,0)" xlink:href="#O"/></g><path d="M137-138c1-29-70-34-71-4 15 46 118 7 119 86 1 83-164 76-172 9l43-7c4 19 20 25 44 25 33 8 57-30 24-41C81-84 22-81 20-136c-2-80 154-74 161-7" id="P"/><g id="i"><use transform="matrix(0.07407407407407407,0,0,0.07407407407407407,0,0)" xlink:href="#F"/><use transform="matrix(0.07407407407407407,0,0,0.07407407407407407,14.222222222222221,0)" xlink:href="#I"/><use transform="matrix(0.07407407407407407,0,0,0.07407407407407407,29.037037037037035,0)" xlink:href="#P"/><use transform="matrix(0.07407407407407407,0,0,0.07407407407407407,43.85185185185185,0)" xlink:href="#N"/></g><g id="j"><use transform="matrix(0.07407407407407407,0,0,0.07407407407407407,0,0)" xlink:href="#J"/><use transform="matrix(0.07407407407407407,0,0,0.07407407407407407,20.74074074074074,0)" xlink:href="#H"/><use transform="matrix(0.07407407407407407,0,0,0.07407407407407407,36.96296296296296,0)" xlink:href="#K"/><use transform="matrix(0.07407407407407407,0,0,0.07407407407407407,51.77777777777777,0)" xlink:href="#L"/><use transform="matrix(0.07407407407407407,0,0,0.07407407407407407,59.185185185185176,0)" xlink:href="#M"/><use transform="matrix(0.07407407407407407,0,0,0.07407407407407407,66.59259259259258,0)" xlink:href="#N"/><use transform="matrix(0.07407407407407407,0,0,0.07407407407407407,75.40740740740739,0)" xlink:href="#O"/></g><path d="M182-182c0 78-84 86-111 141h115V0H12c-6-101 99-100 120-180 1-22-12-31-33-32-23 0-32 14-35 34l-49-3c5-45 32-70 84-70 51 0 83 22 83 69" id="Q"/><use transform="matrix(0.07407407407407407,0,0,0.07407407407407407,0,0)" xlink:href="#Q" id="k"/><linearGradient gradientUnits="userSpaceOnUse" id="l" x1="720" y1="3060" x2="720" y2="3220"><stop offset="0%" stop-color="#fff"/><stop offset="61.79%" stop-color="#ffdda6"/><stop offset="100%" stop-color="#ffc362"/></linearGradient><path fill="#3a414a" d="M23 0v-37h61v-169l-59 37v-38l62-41h46v211h57V0H23" id="R"/><use transform="matrix(0.07407407407407404,0,0,0.07407407407407404,0,0)" xlink:href="#R" id="m"/><linearGradient gradientUnits="userSpaceOnUse" id="n" x1="720" y1="3500" x2="720" y2="3660"><stop offset="0%" stop-color="#fff"/><stop offset="61.79%" stop-color="#ffdda6"/><stop offset="100%" stop-color="#ffc362"/></linearGradient><path fill="#3a414a" d="M128-127c34 4 56 21 59 58 7 91-148 94-172 28-4-9-6-17-7-26l51-5c1 24 16 35 40 36 23 0 39-12 38-36-1-31-31-36-65-34v-40c32 2 59-3 59-33 0-20-13-33-34-33s-33 13-35 32l-50-3c6-44 37-68 86-68 50 0 83 20 83 66 0 35-22 52-53 58" id="S"/><use transform="matrix(0.07407407407407404,0,0,0.07407407407407404,0,0)" xlink:href="#S" id="o"/><path d="M23 0v-37h61v-169l-59 37v-38l62-41h46v211h57V0H23" id="T"/><use transform="matrix(0.07407407407407407,0,0,0.07407407407407407,0,0)" xlink:href="#T" id="p"/><path d="M128-127c34 4 56 21 59 58 7 91-148 94-172 28-4-9-6-17-7-26l51-5c1 24 16 35 40 36 23 0 39-12 38-36-1-31-31-36-65-34v-40c32 2 59-3 59-33 0-20-13-33-34-33s-33 13-35 32l-50-3c6-44 37-68 86-68 50 0 83 20 83 66 0 35-22 52-53 58" id="U"/><use transform="matrix(0.07407407407407407,0,0,0.07407407407407407,0,0)" xlink:href="#U" id="q"/></defs></g></svg>