<svg xmlns="http://www.w3.org/2000/svg" xmlns:xlink="http://www.w3.org/1999/xlink" xmlns:lucid="lucid" width="891" height="419"><g transform="translate(-121 -2353)" lucid:page-tab-id="0_0"><path d="M480 2560c0 88.37-71.63 160-160 160s-160-71.63-160-160 71.63-160 160-160 160 71.63 160 160z" stroke="#3a414a" fill="url(#a)"/><use xlink:href="#b" transform="matrix(1,0,0,1,165,2405) translate(86.33333333333337 161.80208333333331)"/><path d="M960 2560c0 44.18-35.82 80-80 80s-80-35.82-80-80 35.82-80 80-80 80 35.82 80 80z" stroke="#3a414a" fill="url(#c)"/><use xlink:href="#d" transform="matrix(1,0,0,1,805,2485) translate(26.962962962962983 82.27083333333333)"/><path d="M482.5 2560h303.77" stroke="#3a414a" stroke-width="4" fill="none"/><path d="M482.55 2562h-2.1l.05-2-.02-2h2.07z" stroke="#3a414a" stroke-width=".05" fill="#3a414a"/><path d="M795.57 2560l-12.9 7.64v-15.28z" stroke="#3a414a" stroke-width="4" fill="#3a414a"/><path d="M516 2517a6 6 0 0 1 6-6h228a6 6 0 0 1 6 6v48a6 6 0 0 1-6 6H522a6 6 0 0 1-6-6z" stroke="#000" stroke-opacity="0" fill="#fff" fill-opacity="0"/><use xlink:href="#e" transform="matrix(1,0,0,1,521,2516) translate(55.111111111111114 30.708333333333332)"/><defs><linearGradient gradientUnits="userSpaceOnUse" id="a" x1="160" y1="2400" x2="160" y2="2720"><stop offset="0%" stop-color="#fff"/><stop offset="50.55%" stop-color="#cfe4ff"/><stop offset="100%" stop-color="#8abdff"/></linearGradient><path fill="#3a414a" d="M24-248c93 1 206-16 204 79-1 75-69 88-152 82V0H24v-248zm52 121c47 0 100 7 100-41 0-47-54-39-100-39v80" id="f"/><path fill="#3a414a" d="M110-194c64 0 96 36 96 99 0 64-35 99-97 99-61 0-95-36-95-99 0-62 34-99 96-99zm-1 164c35 0 45-28 45-65 0-40-10-65-43-65-34 0-45 26-45 65 0 36 10 65 43 65" id="g"/><path fill="#3a414a" d="M135-194c53 0 70 44 70 98 0 56-19 98-73 100-31 1-45-17-59-34 3 33 2 69 2 105H25l-1-265h48c2 10 0 23 3 31 11-24 29-35 60-35zM114-30c33 0 39-31 40-66 0-38-9-64-40-64-56 0-55 130 0 130" id="h"/><path fill="#3a414a" d="M85 4C-2 5 27-109 22-190h50c7 57-23 150 33 157 60-5 35-97 40-157h50l1 190h-47c-2-12 1-28-3-38-12 25-28 42-61 42" id="i"/><path fill="#3a414a" d="M25 0v-261h50V0H25" id="j"/><path fill="#3a414a" d="M133-34C117-15 103 5 69 4 32 3 11-16 11-54c-1-60 55-63 116-61 1-26-3-47-28-47-18 1-26 9-28 27l-52-2c7-38 36-58 82-57s74 22 75 68l1 82c-1 14 12 18 25 15v27c-30 8-71 5-69-32zm-48 3c29 0 43-24 42-57-32 0-66-3-65 30 0 17 8 27 23 27" id="k"/><path fill="#3a414a" d="M115-3C79 11 28 4 28-45v-112H4v-33h27l15-45h31v45h36v33H77v99c-1 23 16 31 38 25v30" id="l"/><path fill="#3a414a" d="M25-224v-37h50v37H25zM25 0v-190h50V0H25" id="m"/><path fill="#3a414a" d="M135-194c87-1 58 113 63 194h-50c-7-57 23-157-34-157-59 0-34 97-39 157H25l-1-190h47c2 12-1 28 3 38 12-26 28-41 61-42" id="n"/><g id="b"><use transform="matrix(0.07407407407407404,0,0,0.07407407407407404,0,0)" xlink:href="#f"/><use transform="matrix(0.07407407407407404,0,0,0.07407407407407404,17.77777777777777,0)" xlink:href="#g"/><use transform="matrix(0.07407407407407404,0,0,0.07407407407407404,33.999999999999986,0)" xlink:href="#h"/><use transform="matrix(0.07407407407407404,0,0,0.07407407407407404,50.2222222222222,0)" xlink:href="#i"/><use transform="matrix(0.07407407407407404,0,0,0.07407407407407404,66.44444444444441,0)" xlink:href="#j"/><use transform="matrix(0.07407407407407404,0,0,0.07407407407407404,73.85185185185182,0)" xlink:href="#k"/><use transform="matrix(0.07407407407407404,0,0,0.07407407407407404,88.66666666666663,0)" xlink:href="#l"/><use transform="matrix(0.07407407407407404,0,0,0.07407407407407404,97.48148148148144,0)" xlink:href="#m"/><use transform="matrix(0.07407407407407404,0,0,0.07407407407407404,104.88888888888884,0)" xlink:href="#g"/><use transform="matrix(0.07407407407407404,0,0,0.07407407407407404,121.11111111111106,0)" xlink:href="#n"/></g><linearGradient gradientUnits="userSpaceOnUse" id="c" x1="800" y1="2480" x2="800" y2="2640"><stop offset="0%" stop-color="#fff"/><stop offset="61.79%" stop-color="#ffdda6"/><stop offset="100%" stop-color="#ffc362"/></linearGradient><path fill="#3a414a" d="M24-248c120-7 223 5 221 122C244-46 201 0 124 0H24v-248zM76-40c74 7 117-18 117-86 0-67-45-88-117-82v168" id="o"/><path fill="#3a414a" d="M137-138c1-29-70-34-71-4 15 46 118 7 119 86 1 83-164 76-172 9l43-7c4 19 20 25 44 25 33 8 57-30 24-41C81-84 22-81 20-136c-2-80 154-74 161-7" id="p"/><path fill="#3a414a" d="M185-48c-13 30-37 53-82 52C43 2 14-33 14-96s30-98 90-98c62 0 83 45 84 108H66c0 31 8 55 39 56 18 0 30-7 34-22zm-45-69c5-46-57-63-70-21-2 6-4 13-4 21h74" id="q"/><g id="d"><use transform="matrix(0.07407407407407404,0,0,0.07407407407407404,0,0)" xlink:href="#o"/><use transform="matrix(0.07407407407407404,0,0,0.07407407407407404,19.185185185185176,0)" xlink:href="#k"/><use transform="matrix(0.07407407407407404,0,0,0.07407407407407404,33.999999999999986,0)" xlink:href="#l"/><use transform="matrix(0.07407407407407404,0,0,0.07407407407407404,42.814814814814795,0)" xlink:href="#k"/><use transform="matrix(0.07407407407407404,0,0,0.07407407407407404,57.629629629629605,0)" xlink:href="#p"/><use transform="matrix(0.07407407407407404,0,0,0.07407407407407404,72.44444444444441,0)" xlink:href="#q"/><use transform="matrix(0.07407407407407404,0,0,0.07407407407407404,87.25925925925922,0)" xlink:href="#l"/></g><path d="M169-182c-1-43-94-46-97-3 18 66 151 10 154 114 3 95-165 93-204 36-6-8-10-19-12-30l50-8c3 46 112 56 116 5-17-69-150-10-154-114-4-87 153-88 188-35 5 8 8 18 10 28" id="r"/><path d="M133-34C117-15 103 5 69 4 32 3 11-16 11-54c-1-60 55-63 116-61 1-26-3-47-28-47-18 1-26 9-28 27l-52-2c7-38 36-58 82-57s74 22 75 68l1 82c-1 14 12 18 25 15v27c-30 8-71 5-69-32zm-48 3c29 0 43-24 42-57-32 0-66-3-65 30 0 17 8 27 23 27" id="s"/><path d="M220-157c-53 9-28 100-34 157h-49v-107c1-27-5-49-29-50C55-147 81-57 75 0H25l-1-190h47c2 12-1 28 3 38 10-53 101-56 108 0 13-22 24-43 59-42 82 1 51 116 57 194h-49v-107c-1-25-5-48-29-50" id="t"/><path d="M135-194c53 0 70 44 70 98 0 56-19 98-73 100-31 1-45-17-59-34 3 33 2 69 2 105H25l-1-265h48c2 10 0 23 3 31 11-24 29-35 60-35zM114-30c33 0 39-31 40-66 0-38-9-64-40-64-56 0-55 130 0 130" id="u"/><path d="M25 0v-261h50V0H25" id="v"/><path d="M25-224v-37h50v37H25zM25 0v-190h50V0H25" id="w"/><path d="M135-194c87-1 58 113 63 194h-50c-7-57 23-157-34-157-59 0-34 97-39 157H25l-1-190h47c2 12-1 28 3 38 12-26 28-41 61-42" id="x"/><path d="M195-6C206 82 75 100 31 46c-4-6-6-13-8-21l49-6c3 16 16 24 34 25 40 0 42-37 40-79-11 22-30 35-61 35-53 0-70-43-70-97 0-56 18-96 73-97 30 0 46 14 59 34l2-30h47zm-90-29c32 0 41-27 41-63 0-35-9-62-40-62-32 0-39 29-40 63 0 36 9 62 39 62" id="y"/><g id="e"><use transform="matrix(0.07407407407407407,0,0,0.07407407407407407,0,0)" xlink:href="#r"/><use transform="matrix(0.07407407407407407,0,0,0.07407407407407407,17.77777777777778,0)" xlink:href="#s"/><use transform="matrix(0.07407407407407407,0,0,0.07407407407407407,32.592592592592595,0)" xlink:href="#t"/><use transform="matrix(0.07407407407407407,0,0,0.07407407407407407,56.296296296296305,0)" xlink:href="#u"/><use transform="matrix(0.07407407407407407,0,0,0.07407407407407407,72.51851851851852,0)" xlink:href="#v"/><use transform="matrix(0.07407407407407407,0,0,0.07407407407407407,79.92592592592592,0)" xlink:href="#w"/><use transform="matrix(0.07407407407407407,0,0,0.07407407407407407,87.33333333333333,0)" xlink:href="#x"/><use transform="matrix(0.07407407407407407,0,0,0.07407407407407407,103.55555555555554,0)" xlink:href="#y"/></g></defs></g></svg>