<svg xmlns="http://www.w3.org/2000/svg" xmlns:lucid="lucid" width="658" height="222"><g transform="translate(-238 -1624)" lucid:page-tab-id="0_0"><path d="M453.42 1674.67a11 11 0 0 1 11-11h198a11 11 0 0 1 11 11v118a11 11 0 0 1-11 11h-198a11 11 0 0 1-11-11z" stroke="#3a414a" fill="url(#a)"/><path d="M439.7 1733.67H335.42" stroke="#3a414a" stroke-width="4" fill="none"/><path d="M449 1733.67l-12.92 7.63v-15.27z" stroke="#3a414a" stroke-width="4" fill="#3a414a"/><path d="M335.48 1733.67h-2.06M675.92 1733.67H780.2" stroke="#3a414a" stroke-width="4" fill="none"/><path d="M675.98 1735.67h-2.06v-4h2.06z" stroke="#3a414a" stroke-width=".05" fill="#3a414a"/><path d="M789.5 1733.67l-12.92 7.63v-15.27z" stroke="#3a414a" stroke-width="4" fill="#3a414a"/><path d="M516 1696.08h103.1v66.84H516z" fill="#fff" fill-opacity="0"/><path d="M532.3 1717.43h2.43c4.14 0 3.8-5.06 6.64-9.27 2.03-3.1 4.86-5.9 9.85-5.9 3.3 0 5.2 1.57 5.2 3.87 0 1.83-1.38 2.62-2.7 2.62-1.84 0-2.3-.72-2.3-1.64 0-.9.6-1.9.6-2.42 0-.33-.2-.53-1-.53-3.28 0-5.84 3.55-7.22 8.68l-1.25 4.6h5.26l-.78 2.5h-5l-5.2 20.1c-.45 1.78-.97 4.28-1.96 6.7-2.17 5.46-5.72 11.7-11.5 11.7-3.15 0-4.73-1.57-4.73-3.54 0-1.6.92-3.23 2.83-3.23 1.77 0 2.43 1.18 2.43 2.16 0 1.25-1.06 1.32-1.06 2.1 0 .4.4.6.98.6 4.27 0 6.24-10.38 7.23-14.13l5.72-22.48h-5.06M576.4 1756.73l-.8 1.05c-10.38-5.92-16.03-17.02-16.03-28.2 0-12.15 5.72-21.62 16.23-27.86l.6 1.05c-9.14 7.82-11.18 13.93-11.18 26.62 0 12.2 1.97 19.64 11.17 27.33M591.7 1729.52c0 2.1-1.77 3.94-3.87 3.94-2.17 0-4-1.97-4-3.94s1.83-3.94 4-3.94c2.1 0 3.88 1.84 3.88 3.94M599.07 1702.77l.78-1.05c10.06 6.05 16.04 17.02 16.04 28.2 0 12.15-5.8 21.48-16.24 27.86l-.6-1.05c9.34-7.7 11.18-13.87 11.18-26.62 0-12.28-1.64-19.83-11.17-27.33"/><path d="M810.67 1698.17h53.68v75.16h-53.68z" fill="#fff" fill-opacity="0"/><path d="M828.4 1732.2l1.86 15.46c4-5.46 6.3-9.4 7.75-12.1 1.32-2.43 1.85-3.74 1.85-4.92 0-1.38-3.42-2.04-3.42-4.54 0-1.44 1.2-2.63 3.1-2.63 2.1 0 3.74 1.5 3.74 4.08 0 5.12-10.65 20.9-13.4 24.38-4.8 6.04-9.08 12.5-13.55 12.5-2.43 0-3.68-2.05-3.68-3.63 0-1.97 1.78-2.7 2.63-2.7 2.83 0 2.7 2.04 3.75 2.04 1.1 0 4.86-4.07 6.57-6.7l-2.5-20.63c-.34-2.95-.93-6.9-4.6-6.9-.73 0-1.78.2-2.37.27l-.14-1.05 9.85-1.65c1.5 2.17 1.97 3.88 2.56 8.74M834.66 1717.16h-2.24l-8-6.76-7.97 6.76h-2.23l8.15-10.97h4.07M855.23 1740.54c0 1.2-1.02 2.14-2.23 2.14-1.35 0-2.23-.93-2.23-2.14 0-1.16.88-2.32 2.23-2.32 1.2 0 2.23 1.16 2.23 2.32m-1.4 5.8l-4.27 16.92c-.05.28-.05.47-.05.65 0 .34.3.48.62.48 1.02 0 1.3-.56 2.97-2.37l.6.47c-1.63 2.1-3.95 4.88-6.23 4.88-1.3 0-1.86-.88-1.86-2.14 0-.55 0-1.43 3.68-15.7.05-.08.1-.4.1-.55 0-.8-.38-1.02-1.45-1.02-.4 0-.97.1-1.3.18l-.14-.73"/><path d="M280 1712.73h57.23v50.2H280z" fill="#fff" fill-opacity="0"/><path d="M300.04 1727.22l2.96-4.54c1.7-2.62 4-5.52 7.3-5.52 2.1 0 3.22.8 3.22 2.17 0 1.25-.86 2.76-2.57 2.76-1.44 0-1.77-.6-2.9-.6-1.96 0-2.68 1.05-3.6 2.5l-3.62 5.6c1.97 4.06 3.5 12.93 6.44 12.93 1.05 0 2.63-.92 4-3.74l.93.64c-.8 1-3.74 7.3-7.56 7.3-2.7 0-3.94-2.7-4.8-5.06l-2.62-7.43-4.14 6.44c-2.1 3.2-4 6.04-7.7 6.04-2.36 0-3.4-1.64-3.4-3.1 0-1.04.85-2.42 2.5-2.42 1.7 0 1.44 1.3 3.08 1.3.8 0 2.5-.64 4.6-3.87l4.27-6.63-2.17-6.05c-1.12-3.15-2.82-5.85-6.44-5.85-.85 0-1.84.13-2.5.4l-.2-1.2 8.68-2.15c2.9 1.57 4.14 4.27 4.93 6.43M328.1 1729.74c0 1.2-1.03 2.14-2.24 2.14-1.35 0-2.23-.93-2.23-2.14 0-1.16.88-2.32 2.23-2.32 1.2 0 2.23 1.16 2.23 2.32m-1.4 5.8l-4.28 16.92c-.05.28-.05.47-.05.66 0 .32.28.46.6.46 1.03 0 1.3-.56 2.98-2.37l.6.47c-1.62 2.1-3.94 4.88-6.22 4.88-1.3 0-1.86-.88-1.86-2.13 0-.56 0-1.44 3.67-15.7.05-.1.1-.43.1-.57 0-.8-.38-1.02-1.45-1.02-.42 0-.98.1-1.3.2l-.15-.75"/><defs><linearGradient gradientUnits="userSpaceOnUse" id="a" x1="453.42" y1="1663.67" x2="453.42" y2="1803.67"><stop offset="0%" stop-color="#fff"/><stop offset="70.78%" stop-color="#cfe4ff"/><stop offset="100%" stop-color="#8abdff"/></linearGradient></defs></g></svg>