<svg xmlns="http://www.w3.org/2000/svg" xmlns:xlink="http://www.w3.org/1999/xlink" xmlns:lucid="lucid" width="1410" height="316"><g transform="translate(1656 -2428)" lucid:page-tab-id="0_0"><path d="M-1600 2633a6 6 0 0 1 6-6h1268a6 6 0 0 1 6 6v48.85a6 6 0 0 1-6 6h-1268a6 6 0 0 1-6-6z" stroke="#3a414a" fill="url(#a)"/><use xlink:href="#b" transform="matrix(1,0,0,1,-1588,2639.00328223581) translate(0 33.77777777777771)"/><use xlink:href="#c" transform="matrix(1,0,0,1,-1588,2639.00328223581) translate(410.49382716049274 33.77777777777771)"/><path d="M-660 2632.16a6 6 0 0 1 6-6h328a6 6 0 0 1 6 6V2681a6 6 0 0 1-6 6h-328a6 6 0 0 1-6-6z" stroke="#3a414a" fill="url(#d)"/><use xlink:href="#e" transform="matrix(1,0,0,1,-648,2638.159194504964) translate(67.104938271605 33.77777777777776)"/><path d="M-1600 2505.16a6 6 0 0 1 6-6h1268a6 6 0 0 1 6 6V2554a6 6 0 0 1-6 6h-1268a6 6 0 0 1-6-6z" stroke="#3a414a" fill="url(#f)"/><use xlink:href="#g" transform="matrix(1,0,0,1,-1588,2511.155912269154) translate(555.3425925925926 33.777777777777764)"/><path d="M-960 2562.5v50.78" stroke="#3a414a" stroke-width="4" fill="none"/><path d="M-958 2562.55h-4v-2.05h4z" stroke="#3a414a" stroke-width=".05" fill="#3a414a"/><path d="M-960 2622.57l-7.64-12.9h15.28z" stroke="#3a414a" stroke-width="4" fill="#3a414a"/><defs><linearGradient gradientUnits="userSpaceOnUse" id="a" x1="-1600" y1="2627" x2="-1600" y2="2687.85"><stop offset="0%" stop-color="#fff"/><stop offset="56.66%" stop-color="#c3f7c8"/><stop offset="100%" stop-color="#85ef90"/></linearGradient><path d="M127-220V0H93v-220H8v-28h204v28h-85" id="h"/><path d="M114-163C36-179 61-72 57 0H25l-1-190h30c1 12-1 29 2 39 6-27 23-49 58-41v29" id="i"/><path d="M141-36C126-15 110 5 73 4 37 3 15-17 15-53c-1-64 63-63 125-63 3-35-9-54-41-54-24 1-41 7-42 31l-33-3c5-37 33-52 76-52 45 0 72 20 72 64v82c-1 20 7 32 28 27v20c-31 9-61-2-59-35zM48-53c0 20 12 33 32 33 41-3 63-29 60-74-43 2-92-5-92 41" id="j"/><path d="M24-231v-30h32v30H24zM24 0v-190h32V0H24" id="k"/><path d="M117-194c89-4 53 116 60 194h-32v-121c0-31-8-49-39-48C34-167 62-67 57 0H25l-1-190h30c1 10-1 24 2 32 11-22 29-35 61-36" id="l"/><g id="c"><use transform="matrix(0.1172839506172837,0,0,0.1172839506172837,0,0)" xlink:href="#h"/><use transform="matrix(0.1172839506172837,0,0,0.1172839506172837,24.160493827160444,0)" xlink:href="#i"/><use transform="matrix(0.1172839506172837,0,0,0.1172839506172837,38.11728395061721,0)" xlink:href="#j"/><use transform="matrix(0.1172839506172837,0,0,0.1172839506172837,61.574074074073955,0)" xlink:href="#k"/><use transform="matrix(0.1172839506172837,0,0,0.1172839506172837,70.83950617283936,0)" xlink:href="#l"/></g><linearGradient gradientUnits="userSpaceOnUse" id="d" x1="-660" y1="2626.16" x2="-660" y2="2687"><stop offset="0%" stop-color="#fff"/><stop offset="61.79%" stop-color="#ffdda6"/><stop offset="100%" stop-color="#ffc362"/></linearGradient><path d="M137 0h-34L2-248h35l83 218 83-218h36" id="m"/><path d="M24 0v-261h32V0H24" id="n"/><path d="M85-194c31 0 48 13 60 33l-1-100h32l1 261h-30c-2-10 0-23-3-31C134-8 116 4 85 4 32 4 16-35 15-94c0-66 23-100 70-100zm9 24c-40 0-46 34-46 75 0 40 6 74 45 74 42 0 51-32 51-76 0-42-9-74-50-73" id="o"/><path d="M59-47c-2 24 18 29 38 22v24C64 9 27 4 27-40v-127H5v-23h24l9-43h21v43h35v23H59v120" id="p"/><path d="M100-194c62-1 85 37 85 99 1 63-27 99-86 99S16-35 15-95c0-66 28-99 85-99zM99-20c44 1 53-31 53-75 0-43-8-75-51-75s-53 32-53 75 10 74 51 75" id="q"/><g id="e"><use transform="matrix(0.11728395061728387,0,0,0.11728395061728387,0,0)" xlink:href="#m"/><use transform="matrix(0.11728395061728387,0,0,0.11728395061728387,24.981481481481467,0)" xlink:href="#j"/><use transform="matrix(0.11728395061728387,0,0,0.11728395061728387,48.43827160493824,0)" xlink:href="#n"/><use transform="matrix(0.11728395061728387,0,0,0.11728395061728387,57.70370370370367,0)" xlink:href="#k"/><use transform="matrix(0.11728395061728387,0,0,0.11728395061728387,66.9691358024691,0)" xlink:href="#o"/><use transform="matrix(0.11728395061728387,0,0,0.11728395061728387,90.42592592592587,0)" xlink:href="#j"/><use transform="matrix(0.11728395061728387,0,0,0.11728395061728387,113.88271604938264,0)" xlink:href="#p"/><use transform="matrix(0.11728395061728387,0,0,0.11728395061728387,125.61111111111103,0)" xlink:href="#k"/><use transform="matrix(0.11728395061728387,0,0,0.11728395061728387,134.87654320987644,0)" xlink:href="#q"/><use transform="matrix(0.11728395061728387,0,0,0.11728395061728387,158.33333333333323,0)" xlink:href="#l"/></g><linearGradient gradientUnits="userSpaceOnUse" id="f" x1="-320" y1="2499.16" x2="-320" y2="2560"><stop offset="0%" stop-color="#fff"/><stop offset="53.8%" stop-color="#fcfcca"/><stop offset="100%" stop-color="#f8f88a"/></linearGradient><path d="M30-248c118-7 216 8 213 122C240-48 200 0 122 0H30v-248zM63-27c89 8 146-16 146-99s-60-101-146-95v194" id="r"/><path d="M135-143c-3-34-86-38-87 0 15 53 115 12 119 90S17 21 10-45l28-5c4 36 97 45 98 0-10-56-113-15-118-90-4-57 82-63 122-42 12 7 21 19 24 35" id="s"/><path d="M100-194c63 0 86 42 84 106H49c0 40 14 67 53 68 26 1 43-12 49-29l28 8c-11 28-37 45-77 45C44 4 14-33 15-96c1-61 26-98 85-98zm52 81c6-60-76-77-97-28-3 7-6 17-6 28h103" id="t"/><g id="g"><use transform="matrix(0.1172839506172839,0,0,0.1172839506172839,0,0)" xlink:href="#r"/><use transform="matrix(0.1172839506172839,0,0,0.1172839506172839,30.37654320987653,0)" xlink:href="#j"/><use transform="matrix(0.1172839506172839,0,0,0.1172839506172839,53.833333333333314,0)" xlink:href="#p"/><use transform="matrix(0.1172839506172839,0,0,0.1172839506172839,65.5617283950617,0)" xlink:href="#j"/><use transform="matrix(0.1172839506172839,0,0,0.1172839506172839,89.01851851851849,0)" xlink:href="#s"/><use transform="matrix(0.1172839506172839,0,0,0.1172839506172839,110.12962962962959,0)" xlink:href="#t"/><use transform="matrix(0.1172839506172839,0,0,0.1172839506172839,133.58641975308637,0)" xlink:href="#p"/></g></defs></g></svg>